<svg xmlns="http://www.w3.org/2000/svg" viewBox="0 0 461.13 436.64"><title>Asset 5</title><g id="Layer_2" data-name="Layer 2"><g id="Layer_1-2" data-name="Layer 1"><path d="M228,0h14.88a9.64,9.64,0,0,0,1.3.17c3.28,0,6.55.27,9.82.48a247.57,247.57,0,0,1,32.32,4.28A240.85,240.85,0,0,1,357,30.6a214.89,214.89,0,0,1,55,43.26A190.9,190.9,0,0,1,445.06,124a180.83,180.83,0,0,1,16,68.74,185.18,185.18,0,0,1-1.83,33,187.47,187.47,0,0,1-21,63,205.93,205.93,0,0,1-46.45,57.43,224,224,0,0,1-44.83,30.27A242.65,242.65,0,0,1,242.52,403c-6.47.14-13,.16-19.43-.18-6.31-.33-12.6-.85-18.87-1.62a241.76,241.76,0,0,1-24.91-4.4,2.44,2.44,0,0,0-2.13.38,156.84,156.84,0,0,1-28.83,15.68A361.43,361.43,0,0,1,89.44,432a168.74,168.74,0,0,1-32.86,4.56,194.79,194.79,0,0,1-20.5-.36c-10-.72-20-2-29.9-3.38C3.12,432.35.91,431,0,427.92v-2.16a6.79,6.79,0,0,1,3.57-4.43c4.49-2.37,8.94-4.82,13.43-7.2,7.13-3.8,14.27-7.61,20.65-12.62S50,390.47,55.9,384.7a67.65,67.65,0,0,0,9.92-13.06A89.55,89.55,0,0,0,76.66,346.9a2.27,2.27,0,0,0-.8-2.68,211.79,211.79,0,0,1-18.3-18.15,199.38,199.38,0,0,1-32.1-48.28A184.31,184.31,0,0,1,10.06,170a180.71,180.71,0,0,1,28.59-72A201.94,201.94,0,0,1,74.72,57.35a225,225,0,0,1,47.17-31.27,239.65,239.65,0,0,1,34.33-13.9A257.77,257.77,0,0,1,220.71.4,63.36,63.36,0,0,0,228,0Zm39.56,316.68c-2.37,1.11-4.51,2.19-6.72,3.12-5,2.14-10.17,3.9-15.75,3.74-5.17-.14-8.48-3-9.42-8a26.59,26.59,0,0,1,.11-8.72c1.85-12.5,5.66-24.44,10.35-36.13,5.19-12.94,11.41-25.39,17.52-37.89,4.39-9,8.1-18.2,10.05-28.05,1.92-9.68,2.19-19.34-1.34-28.74-4.51-12-13-19.59-25.51-22.4a59.26,59.26,0,0,0-25.36.23,96.14,96.14,0,0,0-26.6,10.11,153.79,153.79,0,0,0-33.38,24.86,1.32,1.32,0,0,0-.6.94l1.79-.72a103.36,103.36,0,0,1,17.17-5.32c6.53-1.38,13.11-2.2,19.76-1.06,5.92,1,10.93,3.55,14.25,8.8,3.09,4.9,3.45,10.2,2.25,15.72s-3.91,10.64-6.57,15.66q-7.8,14.67-15.05,29.63c-3.19,6.58-6.36,13.18-9.64,19.72-3.42,6.84-7,13.61-9.69,20.76-3.53,9.25-5.73,18.73-4.76,28.73a32,32,0,0,0,3.52,12.14c3.51,6.59,9.39,10,16.34,11.76,9,2.31,18.08,2.05,27.17.84A73,73,0,0,0,257.86,328,46.86,46.86,0,0,0,267.56,316.68Zm-5.71-183.47c18.55.35,35.2-15,35.25-35.07a35.22,35.22,0,1,0-70.43-.07A35,35,0,0,0,261.85,133.21Z" fill="#63cf93"/></g></g></svg>