<svg id="Layer_1" data-name="Layer 1" xmlns="http://www.w3.org/2000/svg" viewBox="0 0 100 98.13"><title>Acadamic</title><path d="M1056.2,1068.25c-.59-.65-1.18-1.29-1.78-1.93s-1.34-1.4-2-2.12a1.64,1.64,0,0,1-.4-.5h0q-1.08-1.21-2.22-2.37l0-.07a2.46,2.46,0,0,1-.38-.41c-.71-.68-1.34-1.44-2-2.13a1,1,0,0,1-.26-.37l0,0-2-2.1a.73.73,0,0,0-.09-.08c-.1,0-.15-.1-.21-.16-.74-.77-1.45-1.55-2.18-2.32l-2.26-2.42c-.74-.78-1.48-1.57-2.21-2.36l-2.28-2.43c-.74-.78-1.46-1.57-2.2-2.34l-2.29-2.45-1.42-1.52c-.78-.82-1.55-1.64-2.32-2.47-.46-.51-.93-1-1.4-1.5l-2.33-2.49-2.15-2.3-2.28-2.43-1.44-1.54-2.56-2.72c-.35-.36-.7-.72-1-1.09a.32.32,0,0,0-.36-.11l-2,.44-6.31,1.41-6.42,1.45-6,1.32-4.92,1.1-6.48,1.46-5.46,1.21-4.93,1.11-6.44,1.45-4.71,1-2.77.61-1.38.33a7.91,7.91,0,0,0,.9.85c.75.71,1.54,1.38,2.3,2.07l1.76,1.6,2.28,2c.62.55,1.23,1.13,1.85,1.69l3,2.71c.36.32.71.65,1.08,1,.82.73,1.65,1.46,2.44,2.22.13.12.18.15.28,0,.35-.72.73-1.42,1.11-2.13a1.35,1.35,0,0,1,1.1-.75l2-.22,2.93-.34,3.15-.3c1-.08,1.94-.15,2.9-.2s2.14-.08,3.21-.1,2.41,0,3.62.09,2.23.14,3.34.25,2.11.25,3.16.41c1.53.23,3,.52,4.55.86,2,.43,3.9.94,5.81,1.56q2.37.75,4.67,1.73a47.22,47.22,0,0,1,4.57,2.25q2.32,1.3,4.5,2.82c.87.61,1.73,1.22,2.57,1.86s1.6,1.22,2.39,1.84,1.47,1.2,2.21,1.8l1.6,1.31,1.62,1.36,1.84,1.55a9.19,9.19,0,0,1,.75.65,1.43,1.43,0,0,1,.24,1.43c-.32,1.26-.62,2.51-.94,3.77,0,.17-.05.22.16.18l2.51-.46,1.91-.34,2.54-.47,3.29-.58a12.36,12.36,0,0,1,1.48-.25,9.51,9.51,0,0,0,1.3-.21c.6-.09,1.18-.21,1.77-.32a.54.54,0,0,1,.2-.1l2.77-.5,3.08-.55s.13,0,.15-.06S1056.24,1068.29,1056.2,1068.25Z" transform="translate(-956.29 -1023.48)" fill="#62ce92"/><path d="M1032.49,1067.53c-.55-.51-1-1.09-1.59-1.61-.92-.86-1.85-1.73-2.82-2.55s-1.9-1.58-2.9-2.32q-2-1.5-4.12-2.84c-1.56-1-3.17-1.91-4.8-2.77-1-.54-2.1-1-3.16-1.51q-2.52-1.12-5.15-2c-1-.35-2-.65-3-.94-1.68-.47-3.37-.86-5.09-1.17-1.14-.21-2.29-.38-3.44-.52-1-.11-1.89-.21-2.84-.28-1.14-.08-2.28-.12-3.43-.14-.94,0-1.88,0-2.81,0-1.12,0-2.24.11-3.35.24-.68.08-1.37.12-2.06.21-1,.15-2.06.31-3.09.49s-1.89.37-2.83.57a.33.33,0,0,0-.27.28c-.14.51-.3,1-.46,1.52-.71,2.31-1.43,4.61-2.14,6.92l-1.26,4.06c-.06.19,0,.23.17.23.83,0,1.66,0,2.48.09s1.72.12,2.57.2,1.94.19,2.9.31c1.16.15,2.3.33,3.45.52s2.06.34,3.08.55c1.57.31,3.14.63,4.69,1,2.77.66,5.52,1.39,8.23,2.24,1.61.5,3.22,1,4.81,1.57,1.09.39,2.19.78,3.27,1.19s2.22.85,3.32,1.3c1.61.65,3.21,1.32,4.8,2,1.43.64,2.85,1.29,4.26,2s2.54,1.25,3.8,1.91c1.65.86,3.29,1.74,4.91,2.67.2.11.28.09.35-.13.38-1.23.77-2.46,1.16-3.69l2-6.4c.24-.76.49-1.52.73-2.28,0-.13.07-.27.12-.42l-.06-.09C1032.75,1067.83,1032.63,1067.67,1032.49,1067.53Z" transform="translate(-956.29 -1023.48)" fill="#62cd92"/><path d="M1045.21,1084.68l4.38-13.46a15.17,15.17,0,0,0,.5-1.62c-.59.11-1.17.23-1.77.32a9.51,9.51,0,0,1-1.3.21c-.07,0,0,.12-.06.18q-1.08,3.27-2.14,6.54-1.44,4.43-2.87,8.84c-.06.18-.11.26-.33.19-.93-.29-1.87-.56-2.81-.84-.15,0-.23,0-.29.14-.48,1.55-1,3.1-1.48,4.65-.32,1-.64,2-1,3.05h.09c1.78-.52,3.55-1,5.33-1.58a.31.31,0,0,1,.37.12c.33.39.67.77,1,1.15l2.05,2.34c.31.35.62.69.93,1l.07-.14q1.2-3.88,2.42-7.77c0-.14,0-.21-.15-.26-1.15-.32-2.29-.66-3.44-1-.16,0-.21-.11-.14-.29C1044.82,1085.9,1045,1085.29,1045.21,1084.68Z" transform="translate(-956.29 -1023.48)" fill="#62cd92"/><path d="M1023.8,1104.62a12,12,0,0,0-4.35-7.27,14.55,14.55,0,0,0-3.6-2.13,19.35,19.35,0,0,1-3.52-1.92q-2.6-1.77-5.06-3.73c-1-.76-1.93-1.52-2.89-2.3s-1.74-1.46-2.61-2.2-1.64-1.39-2.45-2.1c-.63-.55-1.26-1.11-1.88-1.68-.79-.73-1.59-1.46-2.36-2.21-1.29-1.27-2.58-2.55-3.82-3.87-.61-.65-1.23-1.31-1.83-2-.82-.94-1.65-1.87-2.44-2.84-.55-.68-1.11-1.35-1.65-2-.33-.42-.59-.89-1.26-.94a6.57,6.57,0,0,0-1.93,0,20.62,20.62,0,0,0-4.35,1.65c-.66.32-1.3.68-1.94,1q-1.35.72-2.64,1.53a.33.33,0,0,1-.49-.06c-.9-.92-1.82-1.82-2.72-2.73-.08-.07-.13-.16-.26,0-.52.52-1.07,1-1.56,1.55a20.46,20.46,0,0,0-2.7,3.71,11.59,11.59,0,0,0-1.56,4.53,7,7,0,0,0,.32,3,7.16,7.16,0,0,0,2.63,3.5c1.5,1.11,3,2.18,4.55,3.29s2.85,2.07,4.26,3.13c1.88,1.41,3.77,2.8,5.63,4.25.23.19.24.25,0,.42-.84.57-1.68,1.14-2.51,1.72-1,.72-2,1.44-3,2.18s-2.31,1.72-3.43,2.61c-.9.7-1.78,1.43-2.63,2.19a18.49,18.49,0,0,0-1.83,1.82,7.45,7.45,0,0,0-.77,1.07c1.26.27,2.49.54,3.72.79a.37.37,0,0,1,.25.18l1.65,2.44a.77.77,0,0,0,.22.29c.19-.35.38-.69.56-1a37.34,37.34,0,0,1,2.85-4.69,21.8,21.8,0,0,1,3.11-3.6,10.56,10.56,0,0,1,2.71-1.82,2.26,2.26,0,0,1,.72-.24c.06,0,.12-.06.16,0s0,.12,0,.18,0,.07-.08.1a23.3,23.3,0,0,0-2.17,3.4,23.07,23.07,0,0,0-2.15,5.81,17.84,17.84,0,0,0-.43,3.86c0,.18,0,.23.23.17.6-.19,1.21-.36,1.81-.56.14,0,.2,0,.27.11l1.72,3.15c0,.06,0,.15.16.15,0-.4.07-.8.13-1.19.14-.87.29-1.75.45-2.62a35.87,35.87,0,0,1,1.18-4.67,20.89,20.89,0,0,1,1.72-4,10.61,10.61,0,0,1,2.12-2.73c.16-.13.25-.1.39,0l1.17,1c.87.7,1.74,1.39,2.6,2.1s1.57,1.34,2.36,2,1.6,1.35,2.39,2c.62.54,1.23,1.08,1.83,1.63.85.79,1.7,1.58,2.54,2.39,1.08,1,2.12,2.14,3.11,3.27a9.9,9.9,0,0,1,1.08,1.34,10.24,10.24,0,0,0,3.2,3.25,8.22,8.22,0,0,0,4.11,1.31c.07,0,.16,0,.17.09h.71c0-.08.06-.09.12-.09a3.94,3.94,0,0,0,.6,0,8.86,8.86,0,0,0,2.58-.73,10.71,10.71,0,0,0,4-3.1,13.61,13.61,0,0,0,2.37-4.3,16.14,16.14,0,0,0,.86-5.89A18.14,18.14,0,0,0,1023.8,1104.62Zm-20-3a19.73,19.73,0,0,1-.31,2.77c-.11.56-.16,1.13-.24,1.7-.06.41-.12.82-.15,1.24a12.44,12.44,0,0,0,.05,2.44v.1c0,.07,0,.15,0,.19s-.12,0-.17-.09c-.44-.42-.87-.86-1.32-1.27-.84-.77-1.69-1.53-2.54-2.29-.48-.43-1-.87-1.45-1.29-.65-.57-1.3-1.11-2-1.67l-1.63-1.39c-.5-.42-1-.82-1.51-1.23l-2-1.61c-.5-.41-1-.83-1.52-1.21-.24-.16-.18-.37-.16-.54a20.53,20.53,0,0,1,.5-2.71,10.68,10.68,0,0,1,1.09-2.72c.22-.36.22-.3.45-.13.73.55,1.42,1.15,2.14,1.71l2.51,1.93c.46.35.92.71,1.39,1,.87.61,1.75,1.21,2.64,1.79s2,1.21,3.08,1.74a3,3,0,0,0,.86.38c.11,0,.16.1.19.21A2.8,2.8,0,0,1,1003.84,1101.63Zm-14.17-19.71a9.76,9.76,0,0,0-2.92,2c-.09.09-.22.14-.29.27s-.17.08-.25,0l-1.58-1.43-2.06-1.86c-.67-.62-1.35-1.23-2-1.87s-1.2-1.11-1.78-1.68-1.15-1.09-1.74-1.62-1.07-1.08-1.65-1.57c-.26-.22-.25-.24,0-.41q1.16-.69,2.34-1.32c.62-.33,1.24-.65,1.87-1a16.37,16.37,0,0,1,2.76-1.1,1.08,1.08,0,0,1,.19,0c.2,0,.28.18.39.3.47.53.92,1.08,1.4,1.6.79.84,1.55,1.7,2.33,2.54.37.4.75.79,1.12,1.18,1.14,1.2,2.31,2.38,3.49,3.54l1.31,1.28c.06.06.16.1.14.2s-.14,0-.22.06A11.73,11.73,0,0,0,989.67,1081.92Zm-7.58,10.43c-1-.77-2-1.54-3.07-2.3s-1.92-1.37-2.86-2.08c-1.13-.86-2.31-1.63-3.45-2.47-.87-.64-1.79-1.21-2.68-1.82-.52-.37-1.07-.7-1.57-1.11a4.23,4.23,0,0,1-1.49-2.26,9,9,0,0,1-.14-.92,8.46,8.46,0,0,1,.65-2.73,13.78,13.78,0,0,1,1-1.89c.37-.58.78-1.13,1.2-1.67.12-.15.22-.17.37,0,.91.9,1.82,1.8,2.74,2.69.51.49,1,1,1.52,1.47s.73.73,1.12,1.08c.87.79,1.72,1.61,2.59,2.43.65.61,1.31,1.23,2,1.83s1.22,1.12,1.83,1.68c.82.75,1.67,1.48,2.51,2.21a.34.34,0,0,1,.09.52,16.62,16.62,0,0,0-1.62,3.34,10.68,10.68,0,0,0-.48,1.93C982.33,1092.44,982.25,1092.48,982.09,1092.35Zm31.13,26.23a5.45,5.45,0,0,1-3.49-1.19,8,8,0,0,1-2.49-3.28,13.25,13.25,0,0,1-1-3.26,16.18,16.18,0,0,1-.19-3.26c0-.64.17-1.28.26-1.93.13-.88.3-1.75.38-2.64a8.85,8.85,0,0,0-.12-3,3.15,3.15,0,0,0-1.94-2.25,19.84,19.84,0,0,1-2.6-1.32c-.89-.51-1.75-1.06-2.59-1.63q-2.19-1.49-4.27-3.12c-.75-.6-1.52-1.18-2.27-1.79a5,5,0,0,0-.5-.41c-.14-.09-.12-.17,0-.28a6.91,6.91,0,0,1,1-.81,11.77,11.77,0,0,1,2.19-1.29,15.32,15.32,0,0,1,2.71-1,.37.37,0,0,1,.36.1l2.26,1.93c.71.6,1.43,1.2,2.15,1.78s1.71,1.38,2.58,2.06c1,.81,2.09,1.6,3.16,2.38s2.1,1.49,3.21,2.15c.16.1.2.14,0,.29a13,13,0,0,0-3.64,5.33,10.44,10.44,0,0,0-.55,2.06,12.54,12.54,0,0,0-.08,2.21,12,12,0,0,0,.48,2.61,8,8,0,0,0,.88,2,6.58,6.58,0,0,0,3,2.65,5.11,5.11,0,0,0,1.64.39,3.91,3.91,0,0,0,3.21-1.31,7.52,7.52,0,0,0,1.44-2.25,17.43,17.43,0,0,0,.71-2,.41.41,0,0,0-.17-.53c-.44-.34-.84-.71-1.25-1.08-.87-.78-1.74-1.57-2.63-2.33-.54-.46-1.05-.95-1.58-1.42s-1-.87-1.44-1.28c-.17-.14-.14-.25,0-.4a11,11,0,0,1,.87-1.27,7.74,7.74,0,0,1,1.83-1.69.18.18,0,0,0,.07,0c.46-.4.89-.14,1.3.1a10.69,10.69,0,0,1,2.26,1.64,8.36,8.36,0,0,1,2,3,12.34,12.34,0,0,1,.71,3,16,16,0,0,1,.09,2.77,12.51,12.51,0,0,1-.9,4.08,13.27,13.27,0,0,1-.86,1.73,8.48,8.48,0,0,1-2.51,2.72,6.5,6.5,0,0,1-3,1.13C1013.62,1118.6,1013.42,1118.58,1013.22,1118.58Zm-2.41-13.74c.07,0,.13,0,.18.05l1.52,1.37c.59.56,1.22,1.07,1.83,1.6l1.38,1.22a.15.15,0,0,1,0,.19,4.28,4.28,0,0,1-1.1,1.65.94.94,0,0,1-.67.22,2.5,2.5,0,0,1-1.48-.65,5.17,5.17,0,0,1-1.58-2.94,10,10,0,0,1-.15-2.56S1010.74,1104.87,1010.81,1104.84Z" transform="translate(-956.29 -1023.48)" fill="#62cd92"/><path d="M1033,1068.07c0,.15-.08.29-.12.42-.24.76-.49,1.52-.73,2.28l-2,6.4c-.39,1.23-.78,2.46-1.16,3.69-.07.22-.15.24-.35.13-1.62-.93-3.26-1.81-4.91-2.67-1.26-.66-2.53-1.29-3.8-1.91s-2.83-1.34-4.26-2c-1.59-.71-3.19-1.38-4.8-2-1.1-.45-2.2-.88-3.32-1.3s-2.18-.8-3.27-1.19c-1.59-.56-3.2-1.07-4.81-1.57-2.71-.85-5.46-1.58-8.23-2.24-1.55-.38-3.12-.7-4.69-1-1-.21-2-.39-3.08-.55s-2.29-.37-3.45-.52c-1-.12-1.93-.23-2.9-.31s-1.71-.15-2.57-.2-1.65-.11-2.48-.09c-.18,0-.23,0-.17-.23l1.26-4.06c.71-2.31,1.43-4.61,2.14-6.92.16-.51.32-1,.46-1.52a.33.33,0,0,1,.27-.28c.94-.2,1.88-.4,2.83-.57s2.06-.34,3.09-.49c.69-.09,1.38-.13,2.06-.21,1.11-.13,2.23-.19,3.35-.24.93,0,1.87-.06,2.81,0,1.15,0,2.29.06,3.43.14,1,.07,1.89.17,2.84.28,1.15.14,2.3.31,3.44.52,1.72.31,3.41.7,5.09,1.17,1,.29,2,.59,3,.94q2.63.9,5.15,2c1.06.48,2.12,1,3.16,1.51,1.63.86,3.24,1.78,4.8,2.77s2.78,1.84,4.12,2.84c1,.74,2,1.51,2.9,2.32s1.9,1.69,2.82,2.55c.55.52,1,1.1,1.59,1.61.14.14.26.3.4.45Z" transform="translate(-956.29 -1023.48)" fill="#62ce92"/><path d="M1044.61,1086.51c-.07.18,0,.24.14.29,1.15.33,2.29.67,3.44,1,.18,0,.19.12.15.26q-1.21,3.89-2.42,7.77l-.07.14c-.31-.36-.62-.7-.93-1l-2.05-2.34c-.34-.38-.68-.76-1-1.15a.31.31,0,0,0-.37-.12c-1.78.54-3.55,1.06-5.33,1.58h-.09c.33-1,.65-2,1-3.05.49-1.55,1-3.1,1.48-4.65.06-.19.14-.18.29-.14.94.28,1.88.55,2.81.84.22.07.27,0,.33-.19q1.42-4.41,2.87-8.84,1.07-3.27,2.14-6.54c0-.06,0-.14.06-.18a9.51,9.51,0,0,0,1.3-.21c.6-.09,1.18-.21,1.77-.32a15.17,15.17,0,0,1-.5,1.62l-4.38,13.46C1045,1085.29,1044.82,1085.9,1044.61,1086.51Z" transform="translate(-956.29 -1023.48)"/><path d="M1052.73,1060.66a18.44,18.44,0,0,1-.68,3l0,0h0q-1.08-1.21-2.22-2.37l0-.07a.71.71,0,0,1,0-.25,7,7,0,0,0,.15-1.65.76.76,0,0,0,0-.15,1.06,1.06,0,0,0-1.34-1.1,9.26,9.26,0,0,0-1.28.22.34.34,0,0,1-.22,0l0,0-2-2.1a.73.73,0,0,0-.09-.08,9.9,9.9,0,0,1,2.37-.75,6.35,6.35,0,0,1,2.13-.1,3.57,3.57,0,0,1,3.15,2.76A6.88,6.88,0,0,1,1052.73,1060.66Z" transform="translate(-956.29 -1023.48)"/></svg>