<svg xmlns="http://www.w3.org/2000/svg" viewBox="0 0 480.98 411.89"><title>Asset 8</title><g id="Layer_2" data-name="Layer 2"><g id="Layer_1-2" data-name="Layer 1"><path d="M481,195.84a12.22,12.22,0,0,0-.2,3.57c-.11,6-.12,12-.3,18-.22,7.39-.53,14.78-.43,22.18.13,10.44-8.07,15.92-15.36,16.79-4.13.5-8.23-.13-12.34-.06-3,.06-6.07-.1-9.11-.22a1.45,1.45,0,0,0-1.66,1.14,131,131,0,0,1-9.18,20.7c-.43.77-.17,1.23.36,1.77q6.3,6.51,12.56,13.06c3.81,4,5.94,8.65,5.7,14.28a13.79,13.79,0,0,1-4.16,9.67c-7,6.81-14.15,13.54-21.22,20.32q-7.62,7.31-15.19,14.66c-2.52,2.44-5.29,4.43-8.87,4.91a17.71,17.71,0,0,1-15.36-5.12c-4.57-4.48-8.93-9.16-13.33-13.81a1.88,1.88,0,0,0-2.64-.46,118.69,118.69,0,0,1-20.79,8c-2.36.66-4.91,1-7.19-.52a8,8,0,0,1-3.54-7.9,6.6,6.6,0,0,1,5.11-5.88,150.34,150.34,0,0,0,21.76-8.52,15.1,15.1,0,0,1,16.81,3c4.51,4.53,8.86,9.22,13.26,13.86.87.91,1.18,1,2.16,0,3.22-3.11,6.43-6.24,9.66-9.34q11.72-11.26,23.46-22.5c.86-.83,1.77-1.61,2.63-2.45,1-1,1-1.25.06-2.26-2.72-2.82-5.45-5.63-8.16-8.46-1.7-1.75-3.4-3.5-5.05-5.29a15.3,15.3,0,0,1-2.22-17,158.23,158.23,0,0,0,6.78-14.3c.81-2.05,1.56-4.12,2.27-6.19a15.59,15.59,0,0,1,15.19-10.74c6,.1,12,.3,18,.44,1.77,0,1.79,0,1.85-1.8.25-7.79.33-15.58.5-23.37.17-7.36.39-14.71.46-22.06,0-1.32.09-2.64.19-3.95.09-1.16-.46-1.56-1.56-1.56-2.8,0-5.61.13-8.4-.07-4-.29-8,.19-12-.43-6.38-1-10.57-4.78-12.52-10.85a142.54,142.54,0,0,0-7.79-20c-2.85-5.77-2.57-11.4,1.24-16.65,1.68-2.33,4-4.15,6.05-6.15q4.57-4.41,9.19-8.78c.73-.69.49-1.18-.1-1.79q-5.83-6-11.63-12.12-11.52-12-23-24.11c-.68-.71-1.1-.52-1.68,0-4.17,4-8.4,8-12.52,12.08a16.61,16.61,0,0,1-10.41,5.15,16.25,16.25,0,0,1-9.42-2.18,114.58,114.58,0,0,0-18.64-8.21c-4.89-1.67-8.5-4.7-10.36-9.61a15.36,15.36,0,0,1-.95-6.84c.28-3.36.11-6.72.21-10.07.07-2.44.11-4.88.22-7.31.05-1.07-.32-1.49-1.44-1.5-5.67,0-11.35-.1-17-.27-7.68-.23-15.35-.33-23-.52-3.08-.07-6.15-.1-9.23-.17-1.79,0-2,.1-2,2-.06,2.92.09,5.85-.11,8.75-.25,3.68.15,7.37-.39,11C285.24,86,281.69,90,276,92.21c-2.09.8-4.25,1.43-6.4,2.05a7.71,7.71,0,0,1-9.44-4.54,7.63,7.63,0,0,1,4.14-9.9A46.64,46.64,0,0,1,269.85,78,1.39,1.39,0,0,0,271,76.48c.05-4.79.05-9.59.28-14.38.13-2.83-.08-5.69.66-8.47,1.57-5.83,4.83-10.23,10.6-12.45a13.76,13.76,0,0,1,6.49-.76c.8.09,1.6.08,2.4.1,6.31.1,12.63.12,18.95.3,7.55.22,15.1.34,22.65.51a69.59,69.59,0,0,1,7.78.27c5.78.79,9.59,4.21,12.1,9.31,2.06,4.19,2,8.67,1.76,13.15-.12,1.88-.08,3.76-.13,5.64-.08,2.83-.12,5.67-.24,8.51a1.43,1.43,0,0,0,1.14,1.66A127.5,127.5,0,0,1,376.14,89a1.13,1.13,0,0,0,1.56-.25c4.14-4,8.32-8,12.44-12,3.54-3.45,7.56-5.91,12.58-6.38a14.68,14.68,0,0,1,12.76,4.72c3.19,3.42,6.5,6.73,9.74,10.11q8.56,8.89,17.1,17.83c2.66,2.77,5.22,5.63,7.94,8.33,5,5,5.79,10.81,3.59,17.23a21.85,21.85,0,0,1-6.12,8.63c-3.63,3.43-7.23,6.9-10.84,10.36l-.43.42c-1.76,1.66-1.76,1.66-.71,3.81a127.11,127.11,0,0,1,7.56,19.56,1.65,1.65,0,0,0,1.86,1.38c5.07,0,10.15.07,15.22.26,3.34.13,6.73.09,9.91,1.44,5.5,2.34,9.32,6.09,10.55,12.12a1.89,1.89,0,0,0,.13.33Z" fill="#63cf93"/><path d="M185.06,0c1,.36,2,.41,3,.87,4.09,1.93,6,5.73,5.35,10.63-.3,2.16-.29,2.14,1.78,2.86a76.23,76.23,0,0,1,26.75,15.85,77,77,0,0,1,23.32,38.93,69,69,0,0,1,2,12.53c.05.8.36,1.18,1.11,1.27a9.56,9.56,0,0,1,8,10.09c-.11,3,0,6,0,9,0,5.82-4,9.81-9.81,9.82-1.68,0-3.36,0-5,0-.85,0-1.18.29-1.26,1.16a71.06,71.06,0,0,1-19.47,43.24,71.57,71.57,0,0,1-104.58-.64,70.45,70.45,0,0,1-18.3-38.26c-.2-1.38-.34-2.77-.46-4.17-.08-.91-.44-1.36-1.43-1.33a26.93,26.93,0,0,1-4.31-.09c-4.57-.66-7.7-4-8-8.93a63,63,0,0,1,.12-12A9.14,9.14,0,0,1,91.17,83c.77-.16,1.42-.25,1.49-1.32a74.54,74.54,0,0,1,6.15-24.91A77.69,77.69,0,0,1,144,14.6c2.35-.83,2.36-.81,2.2-3.24-.18-2.6-.07-5.11,1.57-7.34a9.27,9.27,0,0,1,6-3.8c.27,0,.54-.15.8-.22ZM169.89,102h74.27c.4,0,.8,0,1.2,0,.82,0,1.15-.33,1.14-1.15q0-3.54,0-7.07c0-.82-.32-1.16-1.14-1.14-1.68,0-3.36,0-5,0-2.93,0-2.74.21-2.68-2.76a68.86,68.86,0,0,0-1.42-16.2,67.29,67.29,0,0,0-21.76-37,68.49,68.49,0,0,0-21.1-12.6c-.93-.36-1.25-.19-1.34.86-.37,4.3-.81,8.59-1.25,12.88-.6,6-1.23,12-1.83,18-.58,5.76-1.12,11.53-1.74,17.29-.29,2.74-2.65,4.44-5.6,4.17a4.82,4.82,0,0,1-4.13-5c.33-4.06.78-8.11,1.19-12.17.52-5.2,1.06-10.41,1.58-15.61s1-10.34,1.53-15.51q.89-8.88,1.82-17.76c.11-1-.18-1.45-1.29-1.44q-12.48,0-25,0c-1.11,0-1.42.44-1.31,1.44.18,1.62.32,3.26.48,4.89l1.35,14.19,1.53,16.35q.67,7,1.34,14.07c.34,3.66.75,7.31,1,11A5,5,0,0,1,157.36,77,4.91,4.91,0,0,1,152.08,73c-.22-1.13-.27-2.3-.38-3.45q-.76-8.24-1.53-16.47-.79-8.46-1.61-16.93c-.34-3.62-.67-7.24-1-10.86-.08-.77-.07-1.52-1.33-1a67.94,67.94,0,0,0-21.77,13.32,66.87,66.87,0,0,0-16.5,22.9,65.18,65.18,0,0,0-5.68,26.42c0,1.44,0,2.88,0,4.32,0,.91-.33,1.23-1.26,1.3-2.12.17-4.23.18-6.35.17-.93,0-1.28.32-1.26,1.26,0,2,0,4.08,0,6.12s0,2,2,2Zm-1.12,9.84H136.13q-13.78,0-27.59,0c-1.07,0-1.43.21-1.3,1.42a62.09,62.09,0,0,0,34,49.05,61.91,61.91,0,0,0,54.08.55,61.5,61.5,0,0,0,20.28-15.44,62.35,62.35,0,0,0,9-13.69,63.27,63.27,0,0,0,5.74-19.84c.23-1.9.15-2-1.8-2Z" fill="#63cf93"/><path d="M153.39,212.39a9.81,9.81,0,0,0,.51-2.21c1.11-5.77,2.2-11.55,3.35-17.31.9-4.49,4.76-6.92,9.91-6.36,1.83.2,3.67.35,5.5.41a8,8,0,0,1,8.09,6.51c1.31,5.32,2.57,10.65,3.87,16a2.78,2.78,0,0,0,.61,1.55l3.13-6.93c2.81-6.23,5.57-12.49,8.44-18.7,2.11-4.58,5.9-6.36,10.8-5.2,5.14,1.21,10.23,2.74,15.42,3.58s10.27,3.06,15.58,3.85c9.8,1.45,19.08,4.65,28.18,8.46,5.54,2.32,9,6.64,12,11.64,3.22,5.4,4.79,11.28,5.95,17.36.76,4,1.71,8,2.56,12,.13.66.33,1.15,1.15,1,4-.53,7.93-1,11.85-1.75a7.25,7.25,0,0,0,.8-.25,15.17,15.17,0,0,1-6.06-3,16.36,16.36,0,0,1-5.91-14.63c1.23-12.84,15-19.29,26.23-15a20.44,20.44,0,0,1,12.31,24.74,6.72,6.72,0,0,0-.25,1.89q0,22,0,43.92A1.94,1.94,0,0,0,328.7,276a13.76,13.76,0,0,1,8.48,13.24c0,8.15-.26,16.3-.42,24.46-.08,4.35,0,8.72-.28,13.06-.49,7.33-4.09,12.82-10.5,16.43-1.39.78-2.83,1.5-4.29,2.15a2.18,2.18,0,0,0-1.43,2c-.24,3.1-.48,6.21-.79,9.31-.61,6.23-.54,12.57-2.33,18.64Q309.33,401.67,283,410a44.37,44.37,0,0,1-13.85,1.91c-4.92,0-9.84.11-14.76-.06-8.67-.31-17.35,0-26-.25s-17.2,0-25.79-.24-17.36,0-26-.24-17.28,0-25.91-.24-17.27,0-25.9-.24-17.28,0-25.91-.24-17.44,0-26.15-.25c-4.36-.12-8.72,0-13.07-.21a37.83,37.83,0,0,1-23.2-9.51,37.71,37.71,0,0,1-12.8-22.87c-1.08-6.58-1.85-13.22-2.75-19.83q-.87-6.3-1.71-12.59c-.12-.91-.57-1.19-1.46-1.14-7.12.46-12.46-2.47-16-8.6A11.73,11.73,0,0,1,0,329.3c.08-7.71.08-15.43.32-23.14.12-3.84.07-7.68.19-11.51.1-3,0-5.94.4-8.86a15.28,15.28,0,0,1,9.41-12.4,1.45,1.45,0,0,0,1-1.6c-.14-7.08-.15-14.15-.34-21.23-.21-7.79-.29-15.58-.51-23.37-.09-3.25-.4-6.48.6-9.63,2.31-7.24,6.91-12.33,14.37-14.31s14.11-.33,19.57,5.12c7.42,7.41,6.11,20.46-2.48,26a13.36,13.36,0,0,1-7.33,2.31,3.8,3.8,0,0,0-.59.06s0,.05-.16.22c.94.29,1.82.6,2.73.84a108.28,108.28,0,0,0,17.72,2.92c6.81.63,13.64.78,20.47,1,7.6.26,15.18-.13,22.78-.12q53.16.1,106.31,0c6.8,0,13.6-.13,20.39-.26q9.06-.16,18.1-.48c7.22-.26,14.45-.61,21.67-1,1.87-.09,3.74-.3,5.61-.43.63,0,1-.22.84-1-1.18-5.8-2.18-11.64-3.59-17.38-1.46-5.95-5.59-9.94-10.69-13-5.38-3.2-11.29-5.12-17.26-6.8-10.66-3-21.36-5.87-32-8.83-1-.28-1.47-.1-1.9.91q-8.3,19.28-16.68,38.53c-.78,1.8-1.71,3.43-3.75,4.09a5.34,5.34,0,0,1-6.82-3.46q-4.59-15.09-9.12-30.2a3.58,3.58,0,0,0-.09-.35c-.15-.35-.11-1-.57-1s-.45.58-.54,1c-.74,2.74-1.46,5.48-2.18,8.23q-3,11.31-6,22.62a5.39,5.39,0,0,1-5.07,4.36,5.62,5.62,0,0,1-5.3-3.61q-7.23-16.27-14.5-32.54c-1.19-2.67-2.39-5.33-3.54-8a1.17,1.17,0,0,0-1.56-.84c-14.74,3.62-29.77,6.13-44.18,11.1a55.38,55.38,0,0,0-9.46,4.09,17.36,17.36,0,0,0-8.6,11.45c-1.56,6.29-2.89,12.63-4,19-.21,1.24-.71,1.65-2,1.62-3.28-.09-6.56,0-9.83-.23-.86-.06-1.08-.37-1-1.21a168.45,168.45,0,0,1,4.58-23c2-7.29,6.37-12.8,12.45-17.09,5.37-3.8,11.41-6.07,17.7-7.76,8.82-2.38,17.83-3.81,26.74-5.72,6.81-1.46,13.62-2.87,20.46-4.16,3.84-.72,5.84.31,7.48,3.91,4.07,8.91,8.08,17.85,12.12,26.77C152.73,211.5,152.81,212.05,153.39,212.39ZM21.86,243.3v1.76c0,3.83.09,7.67.21,11.5.2,5.88.22,11.75.29,17.63a2,2,0,0,0,.79,1.64,27.46,27.46,0,0,0,4.07,3,56,56,0,0,0,18.91,6.29,19.88,19.88,0,0,1,10.55,4.75,18,18,0,0,1,6,13.54c.07,5.28,0,10.56.07,15.84a21.91,21.91,0,0,1-2.92,11.48,22.53,22.53,0,0,1-18.49,11.82c-3.42.29-6.85.49-10.28.69-.82.05-1,.4-.9,1.16,1.42,10.25,2.75,20.52,4.24,30.76a28,28,0,0,0,27.4,23.94c8.07.19,16.15,0,24.23.22,8.55.27,17.1,0,25.66.24,8.75.26,17.51,0,26.27.24,8.51.26,17,0,25.54.24,8.75.27,17.51,0,26.27.24,8.51.26,17,0,25.54.23,9.95.23,19.91,0,29.87.27,4.95.11,9.92.1,14.87.05,4.79-.05,9.57.46,14.37-.19a38.91,38.91,0,0,0,32.31-28.84,57.32,57.32,0,0,0,1.32-9.84q.51-6.87,1.14-13.73c.08-.9-.26-1.2-1.07-1.34-2.64-.47-5.25-1.06-7.9-1.47a29.3,29.3,0,0,1-18.69-10.51,27.6,27.6,0,0,1-6.64-16.16c-.37-6-.44-12.06-.5-18.09a15.63,15.63,0,0,1,12.1-15.23c3.23-.77,6.46-1.53,9.65-2.45a96.85,96.85,0,0,0,18.62-7,2.66,2.66,0,0,0,1.64-2.71c-.07-8.32,0-16.64,0-25v-4.43c0-.59-.13-.84-.76-.5-4.19,2.22-8.76,3.23-13.37,4.08-12,2.24-24.25,3-36.45,3.81-6.73.42-13.48.69-20.23.94-6,.23-12.06.34-18.09.5-4.28.12-8.55.07-12.83.2-8.79.26-17.59.17-26.38.23q-22.56.13-45.11-.07c-18.35-.15-36.7-.3-55.06.1-7.79.17-15.58,0-23.37-.38A181.23,181.23,0,0,1,45.35,251C37.21,249.74,29.09,248.28,21.86,243.3Zm304.31,50.38c0-1.32,0-2.64,0-4a4.51,4.51,0,0,0-6.57-3.92c-1.72.84-3.42,1.74-5.19,2.48A153.69,153.69,0,0,1,289.34,296c-2.73.63-4,2.25-3.94,5.05.06,4.84.17,9.67.23,14.51a18.83,18.83,0,0,0,.77,5.44c2.23,7.06,6.88,11.6,14.17,13.2,4.1.91,8.24,1.6,12.36,2.41a3.23,3.23,0,0,0,2.3-.31c1.51-.82,3-1.6,4.61-2.32,4-1.84,5.74-5,5.83-9.27s.05-8.24.18-12.35C326.05,306.15,325.91,299.91,326.17,293.68ZM51.61,306.23c0-.92,0-1.84,0-2.76a7.11,7.11,0,0,0-6.14-7.3c-3.42-.64-6.83-1.3-10.18-2.28-7.23-2.13-14.12-4.93-19.76-10.16-.57-.53-1-.24-1.49.07a5.68,5.68,0,0,0-2.45,5.07q-.12,12-.46,24c-.13,4.87-.08,9.75-.26,14.63-.12,3.41,2.15,5.66,5.59,5.62,1.75,0,3.51-.17,5.26-.29,5.78-.37,11.56-.86,17.34-1.1,7.66-.32,12.76-5.47,12.79-13.12C51.86,314.46,51.74,310.35,51.61,306.23Zm-21-92.4c.38.5.75,1,1.1,1.44A5.77,5.77,0,0,1,32,222c-.86,1.49-.34,2.71,1.32,3.2a3.58,3.58,0,0,0,4-1.43,5.65,5.65,0,0,0,.29-6.34C36.07,214.74,33.44,214,30.6,213.83Zm277.73-.28a8.31,8.31,0,0,0-5.32,1.5,6,6,0,0,0-1.49,8.35,3.71,3.71,0,0,0,4.27,1.3,1.93,1.93,0,0,0,1.08-3.06,6.05,6.05,0,0,1-.9-2.81A6.33,6.33,0,0,1,308.33,213.55Z" fill="#63cf93"/><path d="M307.78,128.48c19.45,0,36.8,6.12,51.63,18.72,15.39,13.07,24.81,29.71,27.62,49.73,3.25,23.08-2.63,43.85-17.17,62.09a76.61,76.61,0,0,1-18.72,16.68c-5,3.23-11.08.56-11.88-5.34-.43-3.16,1-5.61,3.61-7.32a66.51,66.51,0,0,0,11.93-9.81A64.2,64.2,0,0,0,372,218.15a63.43,63.43,0,0,0-3.72-33.33,64.53,64.53,0,0,0-17.92-25.44,64.76,64.76,0,0,0-68.52-10.48,64.67,64.67,0,0,0-32,30.06,7.59,7.59,0,0,1-14.38-2.39,7.69,7.69,0,0,1,.95-4.62,80.62,80.62,0,0,1,60.43-42.87c1.82-.26,3.64-.48,5.48-.58S306,128.48,307.78,128.48Z" fill="#63cf93"/></g></g></svg>