<svg xmlns="http://www.w3.org/2000/svg" viewBox="0 0 487.05 450.5"><title>Asset 7</title><g id="Layer_2" data-name="Layer 2"><g id="Layer_1-2" data-name="Layer 1"><path d="M0,443.06c.9-2.29,2.35-4,4.9-4.45a9.31,9.31,0,0,1,1.67-.11H328.73c4.26,0,6.78,2.52,6.58,6.6-.11,2.37-1.49,3.88-3.5,4.93-.35.18-.73.32-1.09.48H4.8A6.86,6.86,0,0,1,0,445.94Z" fill="#63cf93"/><path d="M147.07,268.23,149,258.09q1.94-10.14,3.86-20.27c1.06-5.58,5.06-8.9,10.71-8.84,2.27,0,4.55.11,6.82.24,4,.22,7.74,3.55,8.73,7.78q3.47,14.83,6.87,29.68c.08.35.17.69.28,1.12a1.84,1.84,0,0,0,.75-1.1q8.28-19.23,16.54-38.46a11,11,0,0,1,12.26-6.48c5.37,1.25,10.65,2.87,16,4.32,9.45,2.57,18.93,5,28.35,7.72A110.22,110.22,0,0,1,283,242.55c7.18,3.9,13.31,9,17.55,16.09,2.67,4.47,4,9.38,5,14.44q5.76,29.25,11.65,58.46,4.85,24.36,9.7,48.71a28.36,28.36,0,0,1-.5,11.42A42.35,42.35,0,0,1,291,424.78a35.56,35.56,0,0,1-5.26.33c-6.16,0-12.32,0-18.48,0-1.21,0-1.64.43-1.71,1.55-.1,1.72,0,3.44-.21,5.16-.12.94-.51,1.26-1.38,1.19-.32,0-.64,0-1,0H68.58c-.36,0-.72,0-1.08,0-.93,0-1.26-.41-1.28-1.31,0-1.71-.22-3.43-.2-5.14,0-1.12-.39-1.45-1.47-1.44q-8.4.06-16.8,0a40.68,40.68,0,0,1-26-9.39A42.05,42.05,0,0,1,6,387.53c-.49-3.78.23-7.38,1-11q10.12-48.49,20.21-97c1-5,1.86-10.07,3.27-15a37.15,37.15,0,0,1,8-14.46c5.89-6.67,13.38-10.91,21.55-14.13a152.71,152.71,0,0,1,25.32-7.32c10.34-2.12,20.57-4.73,30.9-6.92,2.54-.54,5.1-1,7.68-1.3a6.43,6.43,0,0,1,6.88,4.3q7.8,21.27,15.62,42.56C146.6,267.57,146.59,268,147.07,268.23ZM166,304.78H269.63c1.56,0,1.64.05,1.57,1.64-.11,2.75-.3,5.5-.42,8.25-.35,7.79-.65,15.57-1,23.35-.1,2-.16,4-.26,6q-.44,8.73-.9,17.47c-.06,1,.31,1.41,1.36,1.4,3-.06,5.92,0,8.88,0a5.92,5.92,0,0,1,0,11.83c-3.16,0-6.32,0-9.48,0-1.09,0-1.45.42-1.5,1.48-.2,5.11-.46,10.22-.7,15.32q-.46,10.13-1,20.24c-.07,1.41,0,1.52,1.42,1.53,4.24,0,8.48,0,12.72,0a59.92,59.92,0,0,0,8.26-.29,30.25,30.25,0,0,0,25.71-22.71,18.41,18.41,0,0,0,.61-8.18q-3.69-18.54-7.36-37.07-7.17-36-14.35-72A25.63,25.63,0,0,0,286,259.48c-4.35-4.32-9.61-7.12-15.21-9.38a187.05,187.05,0,0,0-22.64-7.16c-10.86-2.85-21.7-5.84-32.51-8.89-.94-.27-1.47-.11-1.86.85-1,2.55-2.17,5.07-3.26,7.6q-9.62,22.32-19.23,44.62c-1.36,3.13-3.91,4.74-6.95,4.5a6.83,6.83,0,0,1-6.22-5.62c-1.09-4.59-2.12-9.2-3.18-13.79-2.31-10-4.64-19.94-6.89-29.93-.35-1.56-1.4-1.18-2.38-1.28s-1.3.47-1.45,1.32c-.55,3-1.14,6.05-1.71,9.08q-3.6,18.91-7.19,37.82a6.74,6.74,0,0,1-2.72,4.37c-3.08,2.25-8.72,1.72-10.73-3.84-6.66-18.43-13.46-36.81-20.2-55.2-.57-1.56-.58-1.61-2.25-1.23-13.82,3.22-27.75,6-41.51,9.47-7.57,1.91-15,4.34-21.79,8.33-7.52,4.42-12.9,10.53-14.74,19.32q-5.29,25.43-10.6,50.85-6.1,29.29-12.21,58.59a19.35,19.35,0,0,0-.43,7.35,30.51,30.51,0,0,0,10.4,18.42A29.52,29.52,0,0,0,45.42,413c6.3.6,12.63.15,18.94.27.94,0,1.16-.42,1.11-1.26-.24-4.18-.47-8.37-.65-12.56-.35-7.78-.69-15.57-1-23.35,0-1.15-.46-1.43-1.5-1.41-2.56.05-5.12,0-7.68,0a5.92,5.92,0,1,1,0-11.84q3.72,0,7.44,0c.85,0,1.24-.25,1.18-1.18q-.36-6.22-.65-12.44-.49-11.21-1-22.4c-.29-7-.53-14.05-.84-21.08,0-.77.24-1,.94-1,.44,0,.88,0,1.32,0Zm.09,11.85H74.36c-.77,0-1,.27-1,1.08.29,5.79.52,11.58.77,17.36l.72,16.77,1,22.15c.24,5.59.49,11.18.72,16.76q.4,10.06.77,20.13c.08,2.37.07,2.38,2.45,2.38h172c2.51,0,2.51,0,2.63-2.58q.46-10.17.95-20.35l1-20.47q.5-10.29,1-20.59c.27-6.11.5-12.22.78-18.32.1-2.24.28-4.47.4-6.7s.18-4.31.29-6.47c0-.8-.26-1.21-1.1-1.15-.4,0-.8,0-1.2,0Z" fill="#63cf93"/><path d="M166.53,0c5.92,0,11.84,0,17.76,0a11.43,11.43,0,0,1,11.18,9.11,16.76,16.76,0,0,1,.05,4.9c-.05.55-.06,1.12-.16,1.67-.17.86.24,1.18,1,1.43a88.53,88.53,0,0,1,14.24,6,96.63,96.63,0,0,1,20.9,14.77A95.17,95.17,0,0,1,252.86,67a91.71,91.71,0,0,1,8.55,30.7,11.19,11.19,0,0,0,.41,3.42c.53,1.17,2.05.73,3.1,1.09,4.66,1.59,7.66,5.43,7.88,10.94a100.76,100.76,0,0,1-.12,13.9,11.35,11.35,0,0,1-11.15,10.22c-2.32,0-4.64.06-7,0-1.07,0-1.5.38-1.58,1.43a84.37,84.37,0,0,1-8.55,31.15,89,89,0,0,1-39.83,40.17,85.45,85.45,0,0,1-29.41,8.68,88.21,88.21,0,0,1-93.46-59.81,83.15,83.15,0,0,1-4-19.57c-.17-2-.19-2-2.2-2a35.34,35.34,0,0,1-5.14-.18A11.49,11.49,0,0,1,60.72,126c-.06-4.36,0-8.72,0-13.08a11.42,11.42,0,0,1,9.86-11.13c.74-.12,1.12-.3,1.18-1.14A95.46,95.46,0,0,1,121.7,23.73a96.53,96.53,0,0,1,15.07-6.51c.77-.26,1.1-.61,1-1.46a41.4,41.4,0,0,1-.29-4.3A11.3,11.3,0,0,1,148.77,0C154.69,0,160.61,0,166.53,0Zm.15,125.28h66.59c8.72,0,17.44,0,26.16,0,1.09,0,1.47-.35,1.44-1.45-.06-3-.05-5.92,0-8.88,0-1-.36-1.42-1.4-1.41-2.72,0-5.44,0-8.16,0-.91,0-1.29-.3-1.29-1.25,0-2.39-.08-4.79-.14-7.19a80.23,80.23,0,0,0-4-23.31,83.87,83.87,0,0,0-50.56-52.38c-1-.37-1.3-.21-1.39.87-.53,5.69-1.12,11.37-1.69,17.06-.69,6.79-1.4,13.58-2.08,20.38-.74,7.35-1.44,14.71-2.21,22.06-.27,2.57-2.57,5.49-6.84,5A6,6,0,0,1,176,88.7c.36-4.06.8-8.11,1.21-12.17.53-5.28,1.07-10.57,1.59-15.85s1-10.42,1.55-15.62,1-10.5,1.58-15.74,1-10.42,1.57-15.62c.16-1.53.1-1.66-1.44-1.66h-31.2c-.86,0-1.38.16-1.27,1.2.44,4.33.83,8.66,1.25,13q.8,8.4,1.6,16.82c.43,4.57.85,9.14,1.29,13.72q.78,8.34,1.59,16.69c.44,4.66.81,9.32,1.34,14A6.15,6.15,0,0,1,151,94.51c-3.18.35-6-2.34-6.32-5.85-.23-2.79-.53-5.57-.8-8.35-.52-5.53-1.06-11-1.58-16.58s-1-11-1.53-16.46-1.07-11-1.58-16.46c-.15-1.59-.21-1.67-1.71-1.1A83.61,83.61,0,0,0,85.18,91a90.16,90.16,0,0,0-1.63,21c0,1.19-.32,1.64-1.56,1.61-2.67-.07-5.35,0-8,0-.65,0-1.23,0-1.22.91v9.84c0,.65.3,1,1,1,.44,0,.88,0,1.32,0Zm-1.33,12H91.81c-.4,0-.8,0-1.2,0-.88,0-1.1.37-1,1.19.23,1.46.36,2.94.59,4.4A75.9,75.9,0,0,0,196.7,200.51a76.07,76.07,0,0,0,26.58-20.09,75.55,75.55,0,0,0,17.62-41c.22-2.13.62-2.07-1.76-2.07Z" fill="#63cf93"/><path d="M381.17,98.44c-.15,4.16-.9,8.26-1.34,12.39q-.4,3.63-.88,7.26a1.22,1.22,0,0,0,.83,1.48,119.78,119.78,0,0,1,18.54,10.53,1.06,1.06,0,0,0,1.48-.06c4.43-3.49,8.88-6.95,13.31-10.43,4.28-3.38,9.05-5,14.53-4.16,4.17.66,7.12,3.09,9.64,6.35q14.21,18.38,28.58,36.59c4.47,5.66,3.87,13.11,0,18.62a27.89,27.89,0,0,1-6.06,5.77c-3.72,2.89-7.43,5.81-11.18,8.67a1.75,1.75,0,0,0-.72,2.38,117.48,117.48,0,0,1,5.5,19.74,1.6,1.6,0,0,0,1.65,1.5c5.91.68,11.83,1.38,17.73,2.18,6.91.93,12.67,6,14,12.26a21.52,21.52,0,0,1-.13,7.16q-1.53,12.44-3.05,24.86c-.88,7.1-1.7,14.21-2.66,21.3-.79,5.86-5.81,10.59-12.27,11.94a27,27,0,0,1-9.05-.09l-14.4-1.8a1.32,1.32,0,0,0-1.6.86,125.73,125.73,0,0,1-10.41,18.35,1.45,1.45,0,0,0,.17,2c3.61,4.58,7.22,9.17,10.77,13.8A17.39,17.39,0,0,1,447.63,342a13.28,13.28,0,0,1-5.14,8.27c-12.76,10-25.48,20-38.31,29.88-5,3.82-10.39,3.57-15.83.92-3.38-1.65-5.71-4.44-7.93-7.35-2.85-3.71-5.78-7.36-8.6-11.1a2,2,0,0,0-2.72-.73,104.86,104.86,0,0,1-20.58,5.55c-2.84.45-5.78.15-7.53-2.73-1.62-2.66-2-5.45-.34-8.28a6.76,6.76,0,0,1,4.92-3.09,112.76,112.76,0,0,0,13-3.21c1.94-.62,3.89-1.23,5.8-2,7.5-2.85,13.59-1.17,18.5,5.15l9.66,12.4c1.14,1.46,1.2,1.49,2.63.37q18.24-14.25,36.5-28.49c.95-.73.73-1.31.13-2.07-3.46-4.4-6.9-8.83-10.35-13.23-4.19-5.34-4.63-11.77-.88-17.41a179.61,179.61,0,0,0,10.67-18.75,13.39,13.39,0,0,1,12.66-7.79c4.3,0,8.5.9,12.75,1.34,2.19.23,4.36.53,6.54.81.86.11,1.33-.14,1.45-1.11.67-5.63,1.4-11.26,2.09-16.89q1.17-9.45,2.31-18.92.65-5.24,1.3-10.47c.13-1.07-.08-1.67-1.37-1.82-5.68-.63-11.34-1.38-17-2.07a14.37,14.37,0,0,1-12.5-11.45,139.35,139.35,0,0,0-5.73-20.54c-2-5.64-.52-12.49,5.58-17,4.41-3.24,8.63-6.74,13-10.08.82-.62.81-1.11.22-1.85l-21-26.83c-2.63-3.37-5.3-6.72-7.89-10.12-.63-.82-1.09-.79-1.84-.2q-6.82,5.39-13.71,10.71a14.38,14.38,0,0,1-17.24.59,128.6,128.6,0,0,0-18.14-10.28,14.46,14.46,0,0,1-8.23-15.16c.74-5.75,1.4-11.5,2.13-17.25.12-.92-.32-1.25-1.11-1.34L353.37,97l-22.49-2.77c-4-.5-8-1-12-1.5-.94-.12-1.31.26-1.42,1.15-.44,3.69-.86,7.38-1.37,11.06-.43,3-.41,6.17-1.41,9.1a13.91,13.91,0,0,1-10.74,9.62A145.36,145.36,0,0,0,288,127.78a11.84,11.84,0,0,1-2.8.64c-4.2.35-7.62-2.72-8-7.15-.46-5,2.4-8.06,6.55-8.57,5.28-.64,10.44-2,15.69-2.84,1.38-.23,1.6-1,1.73-2.12.7-5.83,1.27-11.68,2.2-17.48,1-6.31,4.4-11,10.49-13.42,2.66-1.06,5.41-.8,8.17-.45,8.2,1,16.41,2,24.62,3.06,7.38.91,14.78,1.66,22.13,2.75,6.1.9,9.64,5,11.57,10.57A14.89,14.89,0,0,1,381.17,98.44Z" fill="#63cf93"/><path d="M410.94,235.5c0,14.48-2.69,26.72-8.17,38.34a84.59,84.59,0,0,1-15.19,22.3A85.76,85.76,0,0,1,340.29,322a36.49,36.49,0,0,1-7.37.89,7.86,7.86,0,0,1-7.82-7.67,8.13,8.13,0,0,1,7-8.46A69,69,0,0,0,370.48,290a67.77,67.77,0,0,0,23.23-41.4c3.3-20.31-1.53-38.73-14.25-54.85C368,179.28,352.94,170.71,334.62,168A67.44,67.44,0,0,0,294,174.44a68.93,68.93,0,0,0-33.69,35.66c-1.17,2.76-3,4.71-6,5.39A8.11,8.11,0,0,1,245,204.56a83.17,83.17,0,0,1,9.67-17.49,85.88,85.88,0,0,1,33.45-27.86,83.27,83.27,0,0,1,26.16-7.55,80.64,80.64,0,0,1,12.32-.66,87.1,87.1,0,0,1,33.79,7.71,86.43,86.43,0,0,1,49.52,65.19A68,68,0,0,1,410.94,235.5Z" fill="#63cf93"/><path d="M149.69,347.42q5.77,4.17,11.54,8.35c1.14.82,2.3,1.6,3.39,2.48a1.53,1.53,0,0,0,2.19,0c4.8-3.53,9.64-7,14.47-10.47a.77.77,0,0,1,.64-.18c-1.3,1.57-2.6,3.15-3.92,4.71-2.88,3.42-5.75,6.86-8.67,10.25a4.31,4.31,0,0,0-1,2.48l-2.22,19.28a2.65,2.65,0,0,1-.18.36,39.64,39.64,0,0,1-.76-5.42c-.62-4.87-1.16-9.75-1.72-14.63a2.44,2.44,0,0,0-.69-1.35q-6.47-7.63-12.92-15.29c-.1-.12-.18-.25-.27-.37Z" fill="#63cf93"/></g></g></svg>