<svg xmlns="http://www.w3.org/2000/svg" viewBox="0 0 448.57 419.08"><title>Asset 10</title><g id="Layer_2" data-name="Layer 2"><g id="Layer_1-2" data-name="Layer 1"><path d="M284.4,0c2,.19,4,.36,6,.58A92.58,92.58,0,0,1,306.72,4.2c1.72.52,3.45,1,5.19,1.47a1.53,1.53,0,0,1,1.34,1.76c-.05,4.28,0,8.56,0,12.84a1.81,1.81,0,0,0,1.32,2,81.11,81.11,0,0,1,29.14,20.64,81.83,81.83,0,0,1,20.86,45,43.92,43.92,0,0,1,.53,6.68,1.63,1.63,0,0,0,1.16,1.7c8.06,3.75,12.7,10.08,13.61,18.9a21.47,21.47,0,0,1-5.29,16.58,22.1,22.1,0,0,1-10.89,7.1c-.87.26-.85.57-.36,1.23a15.74,15.74,0,0,1,3,9.78c-.05,9-.14,18,0,27A16,16,0,0,1,355,192.42a2.07,2.07,0,0,0-1.41,1.32,160,160,0,0,1-18.45,31.79,92,92,0,0,1-6.16,7.51,2.2,2.2,0,0,0-.54,2.09c1.34,7,2.69,14,4,21,.17.93.75,1.23,1.48,1.51l18.67,7.27q10.17,3.94,20.35,7.91c3.07,1.2,6.31,1.75,9.46,2.65,12.18,3.48,23.87,8.05,34.46,15.13a67.68,67.68,0,0,1,23.7,26.67A81.78,81.78,0,0,1,447.89,343a100,100,0,0,1,.67,13.28c0,12.92,0,25.84,0,38.76a23.63,23.63,0,0,1-23,24.06c-.36,0-.72,0-1.08,0q-143.22,0-286.43,0A23.36,23.36,0,0,1,120.78,412a22.51,22.51,0,0,1-6.74-16.2c-.1-15.48-.29-31,.06-46.44a77.44,77.44,0,0,1,6.47-29,65.86,65.86,0,0,1,15.06-21.75,81.65,81.65,0,0,1,19.29-13.5,143.45,143.45,0,0,1,31.77-11.41,91.26,91.26,0,0,0,9.6-3.41c11-4.06,22-8.18,33-12.22a2.48,2.48,0,0,0,1.84-2.17Q233,245.32,235,234.72a2,2,0,0,0-.49-1.85c-9.84-11.94-17.28-25.34-23.85-39.27a2.5,2.5,0,0,0-1.51-1.39,15.89,15.89,0,0,1-10.66-15.41V149.44a15,15,0,0,1,3-9.2c.71-1,.4-1.17-.55-1.5-8.1-2.73-13.43-8.2-15.35-16.52a22.37,22.37,0,0,1,12.95-25.88,1.8,1.8,0,0,0,1.21-1.8,82.87,82.87,0,0,1,47.66-71,2.28,2.28,0,0,0,1.53-2.46c-.07-4.6,0-9.2,0-13.8a1.36,1.36,0,0,1,1.1-1.57c6.59-1.8,13.08-4,19.89-4.92a49.76,49.76,0,0,1,6.44-.61A2.83,2.83,0,0,0,277.68,0Zm5.34,406.48c.44,0,.8,0,1.15,0q67.08,0,134.16,0a10.59,10.59,0,0,0,8.68-4.37,12.12,12.12,0,0,0,2.3-7.78c0-13-.06-26,0-39a82.82,82.82,0,0,0-1.94-18.44c-3.32-15.28-11.28-27.41-24.38-36.1-8.73-5.79-18.31-9.61-28.29-12.55-3.84-1.13-7.83-1.82-11.55-3.23-15.7-6-31.32-12.13-47-18.19a2.37,2.37,0,0,1-1.67-2.05c-1.16-6.33-2.38-12.65-3.59-19-.25-1.32-.28-1.33-1.32-.49a76.58,76.58,0,0,1-11,7.44c-9.94,5.47-20.43,7.62-31.69,5.5-9.92-1.86-18.54-6.37-26.35-12.61-1.34-1.07-1.37-1.08-1.69.69-1.19,6.4-2.4,12.81-3.53,19.23a2,2,0,0,1-1.5,1.72c-12.72,4.69-25.42,9.44-38.15,14.11a158.73,158.73,0,0,1-16.24,5.45,113.33,113.33,0,0,0-29,11.23,60,60,0,0,0-18,15.22c-8.39,10.78-12,23.33-12.48,36.66-.52,15.14-.17,30.31-.1,45.47a11,11,0,0,0,11.3,11.07q67.62,0,135.24,0a2.17,2.17,0,0,0,1.39-.17c-.1-.5-.52-.71-.83-1-3.12-2.75-6.25-5.49-9.36-8.24-6.14-5.43-12.25-10.89-18.42-16.28-4.1-3.58-5.18-7.5-3.25-12.56,1.17-3.06,2.38-6.11,3.58-9.16q10.62-26.89,21.24-53.79a2.48,2.48,0,0,0-.05-2.16c-2.94-6.05-5.82-12.12-8.74-18.16A9.28,9.28,0,0,1,267,271.44q14.22-.07,28.43,0A9.3,9.3,0,0,1,303.9,285q-4.23,8.82-8.47,17.62a2.81,2.81,0,0,0-.1,2.51c2.46,5.86,4.88,11.74,7.31,17.62q9.5,23,19,45.9a9.81,9.81,0,0,1-2.4,11.33c-4.32,3.92-8.73,7.74-13.1,11.61q-7.81,6.9-15.63,13.82A1.6,1.6,0,0,0,289.74,406.48Zm-7.25-266.76H216.26c-1.69,0-1.7,0-1.7,1.64,0,1.2,0,2.4,0,3.6a1.08,1.08,0,0,1-.74,1.2c-2.23.85-2.82,1.74-2.82,4.15,0,6,0,11.91,0,17.87,0,2.88,0,5.76,0,8.64a3.38,3.38,0,0,0,3.68,3.65c.88,0,1.76,0,2.64,0a1.47,1.47,0,0,1,1.56,1,259.57,259.57,0,0,0,13,25.67,119.41,119.41,0,0,0,16,21.84c5.6,5.92,11.8,11,19.37,14.27,10.93,4.67,21.59,4.37,32-1.55a78,78,0,0,0,19.45-16.19,134.67,134.67,0,0,0,18.81-27.43,138.24,138.24,0,0,0,7.3-16.18,1.89,1.89,0,0,1,2.22-1.46c1,.08,2.08,0,3.12,0,2.27,0,3.61-1.28,3.61-3.54q0-13.62,0-27.24a3.22,3.22,0,0,0-2.53-3.47,1.06,1.06,0,0,1-.86-1.22c0-1.12,0-2.24,0-3.36,0-1.92,0-1.93-1.88-1.93ZM314,372.5c-.11-.31-.25-.73-.41-1.13L300.5,339.66q-6.18-14.9-12.33-29.81a1.63,1.63,0,0,0-1.78-1.2c-3.24.05-6.48.07-9.72,0a1.87,1.87,0,0,0-2.08,1.46q-5.4,13.86-10.87,27.69-6.62,16.8-13.25,33.58a2.14,2.14,0,0,0,.65,2.83c2.21,1.84,4.33,3.79,6.48,5.7q11.85,10.5,23.67,21a1,1,0,0,0,1.64,0c2.28-2.06,4.59-4.1,6.89-6.14l13.65-12.07,9.68-8.6A2.07,2.07,0,0,0,314,372.5ZM282.35,127.21h29.52q22.92,0,45.83,0a9.91,9.91,0,0,0,9.15-6.94,10.18,10.18,0,0,0-3.23-11c-2.4-1.91-5.18-2.36-8.12-2.36H210.79c-1.44,0-2.87,0-4.31.19a10.13,10.13,0,0,0-7.56,15.26c2.15,3.45,5.32,4.94,9.39,4.94Q245.33,127.16,282.35,127.21Zm18.36-66.69c0-9.44,0-18.88,0-28.32a1.62,1.62,0,0,0-1.46-1.9,73.22,73.22,0,0,0-12.55-1.92,71.09,71.09,0,0,0-24,2.68A1.67,1.67,0,0,0,261.35,33q0,27.78,0,55.55c0,1.67,0,1.69,1.65,1.69q18,0,36,0c1.69,0,1.7,0,1.7-1.77Zm12.52,4.36V92.59c0,1.73,0,1.73,1.73,1.73q17.94,0,35.87,0h.72c.71,0,1-.31.94-1-.18-1.51-.29-3-.51-4.53a69.57,69.57,0,0,0-8.7-25.24,70.36,70.36,0,0,0-28.65-27.39c-1.34-.71-1.4-.65-1.4.92Q313.22,51,313.23,64.88Zm-64.38.84q0-13.66,0-27.34c0-1.39-.13-1.49-1.17-.9A70.19,70.19,0,0,0,212.39,93c-.08,1,.2,1.37,1.28,1.37,11.2,0,22.39,0,33.58,0,1.57,0,1.6,0,1.6-1.62Q248.87,79.21,248.85,65.72Zm32.39,214.15H267.7c-1.66,0-1.95.47-1.24,2,2.72,5.69,5.47,11.37,8.17,17.08a1.69,1.69,0,0,0,1.75,1.1c3.28,0,6.55,0,9.83,0a1.68,1.68,0,0,0,1.73-1.14c2.67-5.63,5.38-11.24,8.07-16.86.81-1.7.54-2.15-1.35-2.15Zm-.57-267.36a84.52,84.52,0,0,0-9.38.77,74.94,74.94,0,0,0-8.77,1.93,1.82,1.82,0,0,0-1.11,2.59c.35,1,1.1.29,1.61.18a81.55,81.55,0,0,1,14.56-2.12,84.86,84.86,0,0,1,21.8,1.59c.39.09.92.4,1.21-.09a1.85,1.85,0,0,0,0-1.41c-.14-.59-.7-.59-1.14-.72A68.58,68.58,0,0,0,280.67,12.51Z" fill="#63cf93"/><path d="M0,193.92a12.44,12.44,0,0,1,5.24-7.2,13.34,13.34,0,0,1,7.26-2.18c4.44,0,8.88,0,13.32,0a1.51,1.51,0,0,0,1.75-1.2,84.55,84.55,0,0,1,5.9-14.15,1.49,1.49,0,0,0-.33-2.07c-3.35-3.38-6.9-6.56-10-10.18a12.71,12.71,0,0,1-2.76-12.32,8.51,8.51,0,0,1,2.26-3.76c9-9,17.91-18,26.91-26.89,3.09-3.06,6.89-3.47,10.93-2.42a13.43,13.43,0,0,1,6.13,3.62c3.08,3.08,6.18,6.15,9.23,9.26a1.42,1.42,0,0,0,2,.34,89,89,0,0,1,14.37-6,1.48,1.48,0,0,0,1.15-1.67c0-4.68-.17-9.37,0-14a12.28,12.28,0,0,1,7-10.94,9.56,9.56,0,0,1,4.42-.94h36.71a11.46,11.46,0,0,1,11.36,8.44,16.12,16.12,0,0,1,.72,4.84c0,4.24,0,8.48,0,12.72,0,.81.18,1.33,1.05,1.6,3.86,1.18,7.67,2.57,11.57,3.58,4.32,1.13,5.58,5.13,3.83,8.77a5.44,5.44,0,0,1-7.65,2.74A130,130,0,0,0,149.91,129a10.91,10.91,0,0,1-7.39-10.33c0-4.31,0-8.63,0-12.95,0-1.61-.13-1.73-1.69-1.73q-17.39,0-34.79,0c-1.53,0-1.61.09-1.62,1.65v12.48a11.07,11.07,0,0,1-7.82,11,108.7,108.7,0,0,0-14.72,6.11A11.21,11.21,0,0,1,68.6,133c-3-3-6-6-9-9-.74-.75-1.2-.86-2,0q-12.37,12.47-24.85,24.86c-.84.83-.77,1.35,0,2.13,3,3,6,6,9,9A11.12,11.12,0,0,1,44,173.18,105.06,105.06,0,0,0,37.77,188a10.92,10.92,0,0,1-10.65,7.62c-4.28,0-8.56,0-12.84,0-1.11,0-1.56.33-1.55,1.5q0,17.58,0,35.16c0,1.19.47,1.49,1.57,1.48,4.28,0,8.56,0,12.84,0a10.89,10.89,0,0,1,10.55,7.42,117.08,117.08,0,0,0,6.36,15.27,11,11,0,0,1-2.12,12.85q-4.55,4.62-9.18,9.16c-.82.8-.82,1.31,0,2.13Q45.23,293,57.61,305.42c.74.74,1.19.77,1.93,0,2.91-3,5.87-5.91,8.81-8.84a11.34,11.34,0,0,1,14-2.22,90.86,90.86,0,0,0,13.84,5.73,7.05,7.05,0,0,1,3,1.63,5.43,5.43,0,0,1,.91,6.14,4.89,4.89,0,0,1-4.85,3.2c-2.83.06-5.26-1.26-7.8-2.17a69.71,69.71,0,0,1-9.63-4.31,1.42,1.42,0,0,0-2,.32c-3.14,3.19-6.26,6.41-9.51,9.49A13,13,0,0,1,54.44,318a9.13,9.13,0,0,1-4.81-2.54Q36.1,301.95,22.57,288.41c-3-3-3.63-8.2-1.62-12.57a14.21,14.21,0,0,1,2.92-4.21c3.17-3.17,6.38-6.29,9.43-9.57a1.25,1.25,0,0,0,.28-1.68,86.17,86.17,0,0,1-6-14.48A1.39,1.39,0,0,0,26,244.81c-4,0-7.93-.14-11.88.05-6.07.3-12.26-2.8-14.07-9.42Z" fill="#63cf93"/><path d="M189.64,213.64c.4,36-29.77,66.86-67.29,66.27a66.28,66.28,0,0,1,2.17-132.55C160.76,147.89,190,177.85,189.64,213.64Zm-12.51,0a53.71,53.71,0,1,0-54.07,53.75C153.18,267.59,177.35,242.81,177.13,213.61Z" fill="#63cf93"/><path d="M396.66,340.55a5.73,5.73,0,0,1,6,5.25,5.51,5.51,0,0,1-4.67,5.81c-5.49.85-11,1.6-16.48,2.38q-15.61,2.22-31.21,4.43a5.6,5.6,0,0,1-6.4-4.28,5.44,5.44,0,0,1,4.33-6.66c3.21-.6,6.48-1,9.72-1.42l31.2-4.45C391.78,341.23,394.39,340.87,396.66,340.55Z" fill="#63cf93"/></g></g></svg>