<svg xmlns="http://www.w3.org/2000/svg" viewBox="0 0 481.94 426.3"><title>Asset 4</title><g id="Layer_2" data-name="Layer 2"><g id="Layer_1-2" data-name="Layer 1"><path d="M481.94,73.21c-.13.29-.27.58-.39.87A6,6,0,0,1,475.89,78c-1.2.06-2.4,0-3.6,0H364.9a6.14,6.14,0,0,1-5.71-2.88c-2.5-4.17.21-9,5.15-9.36.52,0,1,0,1.56,0H474.38c4.36,0,5.95,1.06,7.56,5Z" fill="#63cf93"/><path d="M481.94,99.85a7.17,7.17,0,0,1-2.71,3.84,6.88,6.88,0,0,1-3.88,1q-37,0-74,0H364.36a5.71,5.71,0,0,1-5.54-3.52,5.81,5.81,0,0,1,.92-6.51,5.41,5.41,0,0,1,4.07-2c.56,0,1.12,0,1.68,0q54.6,0,109.19,0c3.93,0,6.12,1.42,7.26,4.89Z" fill="#63cf93"/><path d="M481.94,47.29c-.05.11-.12.21-.16.32-1.24,3.26-3,4.51-6.55,4.51H364.6a6,6,0,0,1-6.28-6.68,5.86,5.86,0,0,1,5.37-5.37c.6,0,1.2,0,1.8,0q54.58,0,109.19,0c4,0,6.2,1.57,7.26,4.88Z" fill="#63cf93"/><path d="M365.26,194.26l-9.37,5.17c-2.94,1.62-5.86,3.29-8.81,4.88a6.09,6.09,0,1,1-5.81-10.71c7.58-4.22,15.18-8.4,22.77-12.61l27.48-15.25q15-8.33,30-16.62l31.89-17.7c2.73-1.51,5.44-3,8.2-4.5a6,6,0,0,1,8.43,2.45,6.13,6.13,0,0,1-2.76,8.29l-55.5,30.78c-1,.54-1.94,1.12-2.93,1.64-.58.31-.75.62-.3,1.2a6.45,6.45,0,0,1,1.12,4.78q-1.32,13.55-2.64,27.08c-.92,9.34-1.88,18.68-2.79,28-.77,7.83-1.48,15.67-2.24,23.5s-1.55,15.5-2.32,23.25q-1,10.14-2,20.28a11.42,11.42,0,0,1-13.05,10.11c-4.62-.72-9.22-1.56-13.87-2.09a12.86,12.86,0,0,1-4.65-1.52L311.49,274.9c-2.66-1.46-5.33-2.91-8-4.4-.76-.43-1-.33-1.11.57-.28,3.62-.61,7.24-.91,10.86q-.58,7-1.13,14-.53,6.63-1,13.26c-.45,5.49-.91,11-1.35,16.48-.36,4.33-.69,8.68-1,13q-.45,5.55-.91,11.1a1.94,1.94,0,0,1,0,.24c-.18,2-.11,2.06,1.83,2.06q56.16,0,112.32,0a22.44,22.44,0,0,1,16.73,6.84,21.35,21.35,0,0,1,6.39,15.44c0,10,0,19.92,0,29.88a22.39,22.39,0,0,1-22,22.07H27.63a22.41,22.41,0,0,1-22.12-22q-.07-15.12,0-30.24A22.54,22.54,0,0,1,25,352.28a52,52,0,0,1,6-.21c5.08,0,10.16,0,15.24,0,2.06,0,2.06,0,2.06-2V298.34A27.19,27.19,0,0,1,71.87,271c2.08-.3,2.08-.3,2.08-2.43v-83.4c0-2,0-2-2-2H29.08C22.57,183.16,18,178.57,18,172q0-54.3,0-108.59a2.44,2.44,0,0,0-1.62-2.62,26.51,26.51,0,0,1-12-11.56c-5.87-10.75-6.07-21.65.45-32.14,5.26-8.46,13.18-13.06,23.2-13.8,9.41-.69,17.48,2.46,24.25,8.87,4.12,3.89,7.06,8.57,7.81,14.37a22.46,22.46,0,0,1-2,12.27C55.5,44.79,51.23,49.46,46.43,53.7a38.61,38.61,0,0,1-13.59,8.14c-2.77.9-2.77.9-2.77,3.86V169c0,2.06,0,2.07,2,2.07H75.41a10.67,10.67,0,0,1,10.78,10.46c0,.48,0,1,0,1.44v85.32c0,.44,0,.88,0,1.32,0,.74.26,1.14,1,1.1.24,0,.48,0,.72,0h29.52c1.82,0,1.83,0,1.83-1.78V135.41c0-1.68,0-1.69-1.66-1.69h-22c-6.6,0-11.2-4.59-11.2-11.16V86.33A10.8,10.8,0,0,1,95.7,75.14q11.28,0,22.56,0c1.76,0,1.77,0,1.77-1.71,0-3.36,0-6.72,0-10.08a1.79,1.79,0,0,0-1.35-2,40.45,40.45,0,0,1-12.76-8.15A44.31,44.31,0,0,1,95.3,39.85c-4.58-9.3-3-19,4.19-26.43a31.19,31.19,0,0,1,19.58-9.95c8.6-.93,16.43,1.14,23.14,6.82a28.3,28.3,0,0,1,10.34,19c1.38,12.78-3.2,23-13.85,30.39a15.47,15.47,0,0,1-5,2.3c-1.19.3-1.46.91-1.45,2,.06,4,0,7.92,0,11.88,0,6.84-4.6,11.45-11.43,11.45q-11.22,0-22.44,0c-1.65,0-1.66,0-1.66,1.69v31c0,1.58,0,1.62,1.61,1.62,7.44,0,14.89.14,22.32-.05a10.92,10.92,0,0,1,10.9,11q0,67.92,0,135.83c0,2.4,0,2.4,2.46,2.51,11.88.55,22.75,10.26,24.65,22.06a34.72,34.72,0,0,1,.48,5.85q0,25.68,0,51.36c0,1.86,0,1.86,1.83,1.87h20.76c1.49,0,1.54,0,1.39-1.52-.49-4.81-1-9.61-1.52-14.42l-1.83-17q-1-9.65-2.08-19.3-1-9.42-2-18.83-1-9.65-2.07-19.3c-.61-5.64-1.19-11.29-1.79-16.93-.49-4.72-1-9.45-1.48-14.18a41,41,0,0,1,3.35-20.61A41.85,41.85,0,0,1,193,189.16a38.72,38.72,0,0,1,15.41-4.59c8.27-.6,16.56-.32,24.83-.18,10.15.18,20.31.11,30.47.16A55.45,55.45,0,0,1,290,190.94c4.48,2.39,8.4,5.57,12.4,8.61q25.74,19.57,51.45,39.18a6.07,6.07,0,0,1,.57.43c.55.5.8.29.94-.35.35-1.65.72-3.28,1.09-4.92q4.28-19,8.54-38C365.08,195.43,365.13,195,365.26,194.26Zm-145.94,220H410.23a10.59,10.59,0,0,0,11-11q0-14.22,0-28.44a10.39,10.39,0,0,0-3.08-7.45c-2.52-2.56-5.7-3.21-9.12-3.21H154.23c-.6,0-1.2,0-1.8,0a5.54,5.54,0,0,1-2.65-.63,7.84,7.84,0,0,1-4.57-7.56q0-28.79,0-57.59a21.54,21.54,0,0,0-.27-3.59c-1.18-7.15-6.26-11.95-13.68-11.81-8,.15-15.92,0-23.88,0-10.72,0-21.44,0-32.16,0a11.89,11.89,0,0,0-9.71,4.65,16.26,16.26,0,0,0-3.32,10.54c0,19.31,0,38.63,0,57.95a8.05,8.05,0,0,1-8,8c-8.32-.16-16.64-.07-25,0-7.26,0-11.66,4.48-11.66,11.71,0,9,.12,17.92,0,26.88A11.11,11.11,0,0,0,29,414.28Q124.16,414.15,219.32,414.23Zm-18-200.86h0q0-6.66,0-13.32c0-1.28-.1-1.33-1.28-.78a30.45,30.45,0,0,0-17.59,30.84c1,9.78,2.07,19.55,3.12,29.32,1.17,10.84,2.37,21.68,3.53,32.52,1.08,10.13,2.12,20.26,3.2,30.39q1.5,14,3,28c.19,1.72.18,1.73,1.94,1.73h42.35q21.24,0,42.48,0c1.09,0,1.54-.27,1.62-1.44.4-5.38.9-10.75,1.34-16.12q1-11.82,1.91-23.65,1-12,1.92-24,1-12.72,2-25.45c.41-5.41,5.6-8.49,10.28-6.05,2.69,1.41,5.34,2.9,8,4.36l33.59,18.33c8.35,4.56,16.69,9.14,25.06,13.67,1.57.85,3,2.06,4.82,2.38,3.89.68,7.82,1.17,11.72,1.82,1.1.18,1.41-.25,1.51-1.22.71-7.43,1.45-14.86,2.16-22.3.68-7,1.31-14.08,2-21.11.76-7.76,1.56-15.5,2.32-23.25s1.48-15.67,2.23-23.5q1.32-13.55,2.65-27.08c0-.25.25-.58-.07-.76s-.53.11-.77.24l-16.16,8.94a2,2,0,0,0-1.09,1.46c-1.25,7-2.93,13.85-4.48,20.75-3,13.39-5.95,26.78-9,40.15-1.46,6.38-8,8.7-13.24,4.74q-17.56-13.35-35.12-26.74c-8.24-6.28-16.5-12.53-24.7-18.85-4.72-3.63-9.58-6.95-15.38-8.64-1.46-.43-1.46-.46-1.46,1.07,0,9.24,0,18.48,0,27.72a14.92,14.92,0,0,1-3.22,9.56c-5.37,7-10.66,14-16,21a5.32,5.32,0,0,0-1.16,3.43c0,4.08,0,8.16,0,12.24a9.65,9.65,0,0,1-2.76,7c-2.18,2.29-4.41,4.54-6.7,6.71a10.2,10.2,0,0,1-14.39-.26q-3.61-3.6-7.21-7.22a10.15,10.15,0,0,1-3.13-7.53c0-3.88,0-7.76,0-11.64a6.05,6.05,0,0,0-1.22-3.79c-5.2-7.2-10.36-14.42-15.56-21.61a16,16,0,0,1-3.12-9.41C201.34,221.77,201.36,217.57,201.36,213.37Zm62.19-.31V198.78c0-1.94,0-1.94-1.88-1.94h-14c-1.83,0-1.83,0-1.83,1.86q0,12.72,0,25.43a6.06,6.06,0,0,1-10.59,4,7.24,7.24,0,0,1-1.65-5.24q0-12.3,0-24.59c0-1.06-.28-1.49-1.42-1.48-5.8,0-11.6,0-17.39,0-1,0-1.34.32-1.34,1.31,0,8.88,0,17.76,0,26.64a6.87,6.87,0,0,0,1.37,4.12c5.25,7.21,10.44,14.46,15.64,21.7a15,15,0,0,1,2.9,9.09c0,3.6,0,7.2,0,10.8a2.08,2.08,0,0,0,.51,1.65c1.52,1.49,3,3,4.5,4.5.43.45.77.43,1.2,0,1-1,2-2.06,3.06-3.05a2.42,2.42,0,0,0,.77-1.91c0-3.72,0-7.44,0-11.16a14.33,14.33,0,0,1,2.92-9q8.17-10.81,16.43-21.56a3.85,3.85,0,0,0,.86-2.53C263.53,222.65,263.55,217.86,263.55,213.06ZM140.65,35.19c.06-5.7-1-9.36-3.43-12.5-4.57-6-10.73-8.24-18.1-6.92a19,19,0,0,0-12.45,8.09c-2.7,3.8-2.09,7.7,0,11.52A35.57,35.57,0,0,0,115,44.89a26.13,26.13,0,0,0,9,5.42,9.33,9.33,0,0,0,9.47-1.65C138.1,44.68,140.52,39.61,140.65,35.19ZM31.36,15.38c-7.42,0-13.26,3.24-16.39,8.5a19.1,19.1,0,0,0,2,22.23,13.91,13.91,0,0,0,5,4c3.12,1.3,6.11.7,9-.62A34.07,34.07,0,0,0,40,43.16a28.43,28.43,0,0,0,7-9.06c1.6-3.61,1.67-7.14-.77-10.44A19.24,19.24,0,0,0,31.36,15.38Z" fill="#63cf93"/><path d="M158.67,98c.12-1.88-.19-4.2.18-6.51a9.08,9.08,0,0,1,7-7.53c.8-.19,1.19-.45,1.26-1.38,1.37-17.49,7.37-33.14,18.67-46.66a71.1,71.1,0,0,1,30.14-21.44c1.33-.49,1.38-1.28,1.22-2.41-.47-3.29-.13-6.38,2.19-9a8.35,8.35,0,0,1,6.44-3c8.88,0,17.76,0,26.64,0a9.08,9.08,0,0,1,8.79,8.78,22.92,22.92,0,0,1-.24,3.7,1.46,1.46,0,0,0,1.14,1.78,69.93,69.93,0,0,1,27.48,18.14,79.82,79.82,0,0,1,20.81,42.45c.43,2.6.68,5.23.93,7.85a1,1,0,0,0,1,1.1c4.34.69,7.53,4.79,7.45,9.68-.05,3.32,0,6.64,0,10,0,5.19-3.9,9.93-9.56,9.6-1.28-.07-2.57.07-3.84,0s-1.63.48-1.69,1.58a65.82,65.82,0,0,1-1.65,10.9,73.46,73.46,0,0,1-16,32,65.62,65.62,0,0,1-30.22,20.21,61,61,0,0,1-23.55,2.64,62.21,62.21,0,0,1-36.58-15.51c-12.66-11-20.39-24.85-23.78-41.2a56.13,56.13,0,0,1-1.25-9.14c0-1.06-.51-1.45-1.58-1.43-1.9,0-3.84.23-5.67-.61-3.69-1.7-5.43-4.7-5.64-8.64C158.59,102,158.67,100.19,158.67,98Zm79.43,15.11H182.91c-2.63,0-2.39-.37-2.08,2.32a64.46,64.46,0,0,0,13.5,33.36,57.21,57.21,0,0,0,20,16.31,52.73,52.73,0,0,0,30.89,5.09,54.2,54.2,0,0,0,24.09-9.49A60.33,60.33,0,0,0,287.72,140a64.48,64.48,0,0,0,7.72-25.28c.15-1.6.09-1.61-1.55-1.61Zm1-9.87h69.24c.4,0,.8,0,1.2,0,.71,0,1-.3,1-1q0-3.72,0-7.44c0-.84-.35-1.13-1.15-1.11-1.12,0-2.24,0-3.36,0-2.55,0-3.66-1.12-3.67-3.64a91.82,91.82,0,0,0-.72-11.24c-.12-1-.24-1.71-1.59-1.71q-22.68.06-45.36,0a2.82,2.82,0,0,0-1.58.44,4.4,4.4,0,0,1-6.44-2,6.59,6.59,0,0,1-.42-3.53c.47-5.45,1-10.9,1.47-16.35.69-7.36,1.4-14.71,2.08-22.07.7-7.52,1.37-15,2.09-22.55.08-.89-.22-1.14-1-1.14H227.24c-.82,0-1.16.29-1.08,1.14.5,5.53,1,11.07,1.45,16.6q1,11.69,2.09,23.39c.63,7.12,1.23,14.24,1.88,21.36a4.68,4.68,0,0,1-6.6,5,4.45,4.45,0,0,0-1.76-.28q-22.38,0-44.75,0c-1.28,0-1.66.49-1.8,1.64A95.76,95.76,0,0,0,176,90.38c0,2.1-1.05,3.16-3.17,3.22-1.2,0-2.4.07-3.6,0-1,0-1.43.3-1.4,1.37.06,2.12,0,4.24,0,6.36,0,1.84,0,1.85,1.84,1.85Zm38.61-34.32h18.83c3.14,0,3.15,0,2.15-3A68.54,68.54,0,0,0,277.19,34a60.79,60.79,0,0,0-16.11-9.58c-.85-.34-1.26-.23-1.34.75-.22,2.74-.48,5.49-.73,8.23-.51,5.64-1,11.29-1.52,16.93s-1.08,11.21-1.59,16.81c-.15,1.65,0,1.73,1.69,1.73Zm-77.31,0h19c2.58,0,2.58,0,2.41-2.5,0-.24,0-.48,0-.72q-.51-6.09-1-12.18Q220,45.72,219.36,38c-.37-4.18-.78-8.35-1.1-12.53-.09-1.15-.41-1.31-1.46-.87a62.63,62.63,0,0,0-20,13.27,69.1,69.1,0,0,0-17.67,29.41c-.48,1.55-.44,1.62,1.21,1.62Z" fill="#63cf93"/><path d="M96.89,320.64h1.29c4.56,0,9.12,0,13.67,0a4.6,4.6,0,0,1,4.48,2.84,4.45,4.45,0,0,1-1.12,5.27c-5.26,4.91-10.55,9.78-15.82,14.67-2.7,2.5-5.38,5-8.08,7.52a4.38,4.38,0,0,1-2.56,1.42,4,4,0,0,1-3.31-7.11q8-7.44,16-14.84c.44-.4.86-.82,1.32-1.27-.42-.45-.88-.3-1.28-.3H88c-2.46,0-4.11-1-4.87-3a4.61,4.61,0,0,1,1.41-5.42l18.48-17.09q3.61-3.33,7.21-6.68a4.24,4.24,0,0,1,5.84-.16,4,4,0,0,1-.14,6c-4.92,4.62-9.9,9.18-14.86,13.77-1.46,1.35-2.9,2.71-4.35,4.07Z" fill="#63cf93"/><path d="M245.79,335.75c0,1.19,0,2.39,0,3.59a6.05,6.05,0,0,1-12,.7,32.1,32.1,0,0,1,0-8.48,6.05,6.05,0,0,1,12,.71C245.82,333.43,245.79,334.59,245.79,335.75Z" fill="#63cf93"/><path d="M245.8,307.19c0,1.08,0,2.16,0,3.24a6.16,6.16,0,0,1-5.9,6.09,6,6,0,0,1-6.15-5.25,32,32,0,0,1,0-8.36c.46-3.38,3.17-5.35,6.81-5.09a6,6,0,0,1,5.24,5.9C245.81,304.88,245.79,306,245.8,307.19Z" fill="#63cf93"/><path d="M122.72,30.21c3.08,0,6.16,0,9.24,0a4.07,4.07,0,0,1,4.42,4.17,4.24,4.24,0,0,1-4.28,4.5q-9.42.09-18.83,0A4.25,4.25,0,0,1,109,34.4a4.1,4.1,0,0,1,4.41-4.19C116.48,30.2,119.6,30.21,122.72,30.21Z" fill="#63cf93"/><path d="M25.23,26.65a18.36,18.36,0,0,1,.16-3.23,4.37,4.37,0,0,1,8.52-.2,22,22,0,0,1,.16,5.26c0,1.12.32,1.61,1.5,1.54s2.48,0,3.72,0a4.39,4.39,0,0,1,4.63,4.35,4.32,4.32,0,0,1-4.59,4.34c-1.32,0-2.64,0-4,0-.92,0-1.31.3-1.28,1.25,0,1.51.06,3,0,4.55a4.47,4.47,0,0,1-3.27,4.28,4.33,4.33,0,0,1-4.59-1.57,5.08,5.08,0,0,1-1-3.15c0-1.36,0-2.72,0-4.08,0-.91-.29-1.32-1.25-1.28-1.23,0-2.48,0-3.72,0a4.33,4.33,0,0,1-4.41-4.27A4.41,4.41,0,0,1,20.19,30c1.24,0,2.48-.05,3.72,0,1,0,1.4-.34,1.33-1.32C25.19,28,25.23,27.33,25.23,26.65Z" fill="#63cf93"/></g></g></svg>