<svg id="Layer_1" data-name="Layer 1" xmlns="http://www.w3.org/2000/svg" viewBox="0 0 1900.33 152.62"><title>end_line</title><path d="M1910.54,18.53a1.92,1.92,0,0,0-.23-.2l-.1-.07a1.62,1.62,0,0,0-1-.31c-3.22-.06-6.24.27-8.75-2.18a3.44,3.44,0,0,1-.27-.27,10.26,10.26,0,0,1-1-1.25,3.82,3.82,0,0,0-.78-.86,2.43,2.43,0,0,0-.32-.24c-2.3-1.53-6-.31-8.47,2.3a7,7,0,0,1-3.85,2.34c-3.79.32-7.62.11-11.52.11l0-.08c-.52-1.48-.93-2.72-1.42-3.92-.11-.29-.23-.57-.36-.85s-.26-.54-.4-.81h0l0,0,0-.06c-.11-.2-.23-.41-.35-.6a2.39,2.39,0,0,0-.13-.21l-.34-.5-.22-.3c-.09-.13-.18-.26-.28-.38s-.32-.37-.48-.55-.2-.25-.31-.37l0,0-.55-.55c.08.08.15.17.23.26-.29-.29-.57-.59-.88-.85a11.45,11.45,0,0,0-1.17-.91,14.43,14.43,0,0,0-8.26-2.54c-6.14,0-11.71,3.3-13.47,9.23-1.18,4-3.39,4.06-6.58,4.06Q959.57,17.81,79.9,18a8,8,0,0,1-4-.78h0c-1.21-.68-2-1.89-2.74-3.85a13.12,13.12,0,0,0-2.76-4.59c-.2-.22-.41-.43-.63-.64a14.06,14.06,0,0,0-9.45-3.41c-6.22-.13-11.44,2.54-13.44,8.45-1.48,4.37-3.78,5.42-7.63,4.7-2.74-.51-5.9,1.12-8.41-.75a3.92,3.92,0,0,1-.46-.37,6.67,6.67,0,0,1-1-1.32,6.54,6.54,0,0,0-1.3-1.56l0,0c-2.08-1.77-4.92-1.6-7.49-.2-2.78,1.51-5.37,3.39-8.16,5.28l-1.21.81.07.1.1.13.26.31.1.1.15.13.15.1h0a.42.42,0,0,0,.14.09h0l.11.06h0a.71.71,0,0,0,.28.06c.28,0,.55,0,.81,0a3.64,3.64,0,0,1,.48,0l.27,0,.47.07L15,21l.25.06a.44.44,0,0,1,.15.05,5.14,5.14,0,0,1,.55.2l.5.23.15.08.24.12.46.28c.14.08.28.18.42.27.39.27.77.55,1.15.85l1.31,1.09.08.06c1.66,1.3,6.47,1.51,7.35.35,3.66-4.88,8.47-3.38,13.06-3.73a6.13,6.13,0,0,1,3.81.62l.22.15a6.47,6.47,0,0,1,2.08,3.23,13.73,13.73,0,0,0,2.67,4.63,8.2,8.2,0,0,0,.65.67,14.06,14.06,0,0,0,9.82,3.7C66,34,71.09,31.29,73,25.67c1.6-4.83,4.4-4.77,8.2-4.77h1763.3a19,19,0,0,0,4.86,9.19c.26.25.53.48.81.71l.47.36a14.11,14.11,0,0,0,8,2.62c8.69.37,13.31-4.88,15.69-12.88h7.59c2.71,0,5.26-.3,7.5,1.45.12.1.24.19.35.3a8.18,8.18,0,0,1,1.29,1.46,5,5,0,0,0,.84.93,3.45,3.45,0,0,0,.45.33,5.54,5.54,0,0,0,7.44-1.49c2.21-2.93,4.74-3.06,7.74-3.06,1.32,0,2.66-.77,4-1.19A6,6,0,0,0,1910.54,18.53Zm-40.11-8.67-.1-.12Z" transform="translate(-11.15 -4.62)" fill="#545454"/><path d="M214.29,47.33h0a.12.12,0,0,0,0,.07.24.24,0,0,0,0,.17h0s0,0,0-.23Z" transform="translate(-11.15 -4.62)" fill="#545454"/><path d="M214.29,47.31l.1-.07h0l-.12-.09C214.28,47.21,214.29,47.26,214.29,47.31Z" transform="translate(-11.15 -4.62)" fill="#545454"/><path d="M1707.91,46.07l-1.24.09h0a17.06,17.06,0,0,1-1.9,0c-.24,0-.48,0-.71-.06s-.58-.07-.86-.12-.81-.17-1.21-.28a12.91,12.91,0,0,1-5.94-3.73,4.29,4.29,0,0,0-1.3-1l-.37-.14c-2.15-.73-4.75.57-6.73,2.61-1,1.06-2.43,2.35-3.75,2.46-4,.32-8,.11-11.92.11h-.08c-1.24-4.7-3.31-8.38-6.48-10.61l-.06,0-.52-.34a11.11,11.11,0,0,0-1.61-.83c-.36-.15-.74-.28-1.12-.41l.44.14c-.2-.08-.41-.15-.61-.21h0c-.42-.13-.86-.23-1.3-.33h.07l.9.23-.26-.08a3.59,3.59,0,0,0-.47-.12l-.18,0-.38-.07-.09,0-.5-.08-.15,0-.75-.08h-.06l-.41,0-.37,0-.83,0h-.36c-8.16.13-12.6,5.07-14.53,12.76H277c-.18-.7-.38-1.37-.61-2-.14-.39-.28-.78-.43-1.16h0c-.2-.5-.43-1-.66-1.46-.1-.2-.19-.4-.29-.59a.25.25,0,0,1,0-.07h0c-.18-.33-.37-.65-.56-1v0h0c-.23-.37-.47-.72-.73-1.06l0,0c-.16-.22-.33-.43-.5-.63l-.06-.07c-.07-.08-.14-.15-.2-.23l0,0-.17-.18q-.36-.39-.75-.75l-.13-.12-.1-.08a12.05,12.05,0,0,0-1.4-1.07l-.58-.37-.12-.07c-.23-.13-.47-.25-.71-.37l-.16-.07-.45-.19-.41-.18-.22-.07-.37-.12-.33-.12-.27-.07-.63-.16-.28-.07-.32,0-.57-.1-.24,0-.12,0-.48,0-.24,0h-.09c-.39,0-.8-.05-1.21-.06-8.63-.14-13.17,5.11-15.25,13H240a31.61,31.61,0,0,1-4.9-.13H235a7.28,7.28,0,0,1-.92-.23,6.08,6.08,0,0,1-.89-.35,4.67,4.67,0,0,1-.82-.49,3.9,3.9,0,0,1-.42-.32,4.57,4.57,0,0,1-.41-.37,5.42,5.42,0,0,1-.4-.42,10,10,0,0,1-.77-1,1.34,1.34,0,0,0-.11-.14,1.66,1.66,0,0,0-.34-.3,8.17,8.17,0,0,0-4.85-.86,6.17,6.17,0,0,0-.62.09l-.49.13-.33.08c-3.32,1.22-6.2,3.62-9.24,5.6v0h0c2.87,2,5.24,3.62,7.45,5.37,3,2.36,7.06,1.92,9.81-1.08,1-1.08,2.43-2.3,3.75-2.41,3.95-.31,7.95-.11,11.77-.11v0a35.24,35.24,0,0,0,1.92,4.6c.23.44.45.85.68,1.25.13.21.25.42.39.63a16.73,16.73,0,0,0,1.8,2.37c-.12-.14-.26-.28-.38-.43.07.09.13.18.2.26s.29.32.45.47l.17.2.57.53-.44-.42c.22.21.45.41.68.6a2,2,0,0,1-.23-.18,9.77,9.77,0,0,0,1.27,1c-.1-.06-.18-.14-.28-.21.32.22.63.45,1,.64a4.29,4.29,0,0,0,.51.28c.17.09.34.18.52.26a11,11,0,0,0,1.63.62,15.65,15.65,0,0,0,4.29.61,14.94,14.94,0,0,0,5.58-.88l0,0,.52-.22a8.14,8.14,0,0,0,1-.49l.48-.29,0,0a16.06,16.06,0,0,0,5.1-5.61,37.92,37.92,0,0,0,2.54-5.25l1364.91,0v0c2.3,7,5.51,10.81,10.33,12.17a14.29,14.29,0,0,0,1.63.36,17.8,17.8,0,0,0,1.85.19c6.39.33,12.22-2.48,14-8.34,1.48-4.86,4.32-4.95,8.12-4.75a43.74,43.74,0,0,1,5.91.29,8.16,8.16,0,0,1,1.29.34,8.67,8.67,0,0,1,1,.45h0l.11.07.37.21,0,0,.28.2h0l.33.26.12.1.28.25,0,0a4.53,4.53,0,0,1,.49.49l.15.17.18.21c.14.17.27.35.41.53a5.73,5.73,0,0,0,.44.52l.1.1.14.14.23.18.06,0,.28.19a2.29,2.29,0,0,0,.29.18l.3.14.15.07-.1,0a3.83,3.83,0,0,0,.43.17,4,4,0,0,0,1,.21,5.86,5.86,0,0,0,5.4-2.62c1.88-2.8,4-2.86,6.69-2.94,1.2,0,2.37-.81,3.56-1.25l-.09-1.58Zm-3.78,0,.54,0Z" transform="translate(-11.15 -4.62)" fill="#545454"/><path d="M1224,120.49c-5.91-1.35-12.1-1.37-18.48-2a23.17,23.17,0,0,1,3.69-1.4,24.81,24.81,0,0,1,2.78-.64c.84-.14,1.67-.24,2.51-.31.42,0,.84-.06,1.26-.08,6.38-.23,12.76,1.43,19.22,2.16l0,0a20.69,20.69,0,0,0-6.64-5,28.27,28.27,0,0,0-15.38-2.08,26.38,26.38,0,0,0-3.88.85c-.22.06-.44.12-.65.2-.68.2-1.35.45-2,.72-7.89,3.06-15.35,7.2-23.17,10.43-2.29.94-4.62,1.8-7,2.62s-4.78,1.6-7.17,2.39l-2.4.79-2.37.8-.09,0-.61-1.66c2.37-1,4.77-2,7.11-3.13,9.85-4.66,17.2-11.43,18.67-22.89s-6.81-20.33-18-18.49l-.92.18-.09,0c3,2.43,6.16,4.14,8.16,6.71a20.62,20.62,0,0,1,4.2,9.24c.42,2.94-1,6.15-1.57,9.24a0,0,0,0,0,0,0l-1.31-.21a41.15,41.15,0,0,0-.25-4.44c-1.15-7.54-4.55-13.63-12-16.48a16.87,16.87,0,0,0-16.73,2.16l-.05,0-.59.48a14.59,14.59,0,0,0-1.3,1.15,10.77,10.77,0,0,0-1.08,1.18,11.73,11.73,0,0,0-1,1.45h0a14.33,14.33,0,0,0-1.44,11.48c1.35,5.22,4.81,8.77,10.35,9.59a11.47,11.47,0,0,0,8.16-1.55,9.5,9.5,0,0,0,1-.78,12.1,12.1,0,0,0,2.42-2.8,9.42,9.42,0,0,0-.66-11.64c-2.88-3.65-6.82-4.08-10.82-2.28a7.69,7.69,0,0,0-1.82,1.12,5.46,5.46,0,0,0-.64.63c-1.67,1.85-1.92,4.41-1.15,7.09.37,1.29,2,2.47,3.37,3.12a3.5,3.5,0,0,0,2.54-.85l.15-.16a.5.5,0,0,0,.09-.2c.17-1.3-.49-2.68-.83-4-.15-.44-.33-.86-1-2.73h.07c2.6.49,5.36.27,5.85,1.26.86,1.72,1.19,5,.25,6.08l0,0h0c-.15.15-.31.3-.48.44-1.72,1.42-4.77,2.58-6.29,1.9a12.06,12.06,0,0,1-5.83-6.54,7.65,7.65,0,0,1,1.32-7.31,10.54,10.54,0,0,1,2-2c.24-.19.48-.37.74-.54a13.1,13.1,0,0,1,1.8-1,12.69,12.69,0,0,1,14.66,2.89,15.72,15.72,0,0,1,3.26,16.5c-.11.27-.21.54-.33.8s-.28.6-.43.9-.36.67-.55,1a17.51,17.51,0,0,1-2.86,3.63c-.28.29-.58.56-.89.83a19.75,19.75,0,0,1-3.14,2.25c-9.46,5.51-19.81,5.59-30.09,3.84-21.87-3.7-41.63-12.6-59.56-25.6-7.42-5.37-14.67-11-22.14-16.29-12.38-8.78-25.62-15.4-41-17.21-12-1.4-23,1.86-30.86,8.28a33.69,33.69,0,0,0-4.8,4.75,32,32,0,0,0-2.45,3.36c-.4.64-.78,1.28-1.14,2a32.91,32.91,0,0,0-4,15.75,209.51,209.51,0,0,0,2,26.12c.7,5.61-.13,10.56-3.3,15.19a21.44,21.44,0,0,0-1.41,2.84l.79,1.46c2.32-.74,5-1,7-2.23a3,3,0,0,0,.33-.21,12.21,12.21,0,0,0,1.38-1.12,11.42,11.42,0,0,0,1.13-1.19c4-4.83,2.47-11.13,1.61-17.32l.06,0c12.78,8.61,24.71,8,32.88,2.29q.49-.33,1-.69c.3-.24.61-.48.9-.73.57-.48,1.11-1,1.64-1.52a26.72,26.72,0,0,0,7.39-17.39l0,.2c.78,4.85,1.55,9.92.84,14.71a9.08,9.08,0,0,1-2.14,4.76l-.38.39a6.14,6.14,0,0,1-.75.69,4.58,4.58,0,0,1-.43.34l0,0c-2.76,2.08-6.54,3.13-9.82,4.66l-.07,0a11.79,11.79,0,0,0,14.44.51q.45-.31.87-.66a12.48,12.48,0,0,0,2-2.06,13.17,13.17,0,0,0,1.93-3.64c1.42-4.14,1-8.9,1.32-13.41a.13.13,0,0,0,0,.06c.67.72,1.65,1.4,1.71,2.15.52,6.05.5,12-4.2,16.82a30,30,0,0,0-3,4.45c.29.4.58.81.88,1.21l.09,0c1.6-.41,3.94-.38,4.61-1.41,2.47-3.84,4.36-8,6.14-11.49l.07.09c2.2,2.58,4.84,6.47,8.14,9.37a9.75,9.75,0,0,0,3.56,2l.07,0a9.17,9.17,0,0,0,7.91-1.49,10.79,10.79,0,0,1,4.68-1.86c3.46-.38,7.06-.25,9.46-4.06-1.28-.12-2.45-.26-3.53-.42-7.86-1.13-11-3.42-16.57-10.68-2.42-3.18-4.69-6.48-7.17-9.61a33.93,33.93,0,0,0-18.87-12.4,38.56,38.56,0,0,1-12.69-5,17.51,17.51,0,0,0-6.85-2.7,12.83,12.83,0,0,0-1.64-.16,16.78,16.78,0,0,0-10.32,3.13A15.58,15.58,0,0,0,987,106.91a13.08,13.08,0,0,0,10.73,9.9h.11a13.82,13.82,0,0,0,1.54.15,10.54,10.54,0,0,0,9.91-5.33c2.82-4.56,2-10-1.83-13.1a8.92,8.92,0,0,0-4.21-1.82l-.69-.08a8.47,8.47,0,0,0-6.22,1.78c-3.32,2.85-3.36,7.15.28,12.78l0,.08c-4.86-2.64-5.9-6.23-4.74-10.64a11,11,0,0,1,11.79-8c.39,0,.77.09,1.15.15a13.62,13.62,0,0,1,11.39,9.77c2.31,7.07,0,13.23-5.19,18.15a18.94,18.94,0,0,1-13.95,5.08c-.37,0-.74,0-1.11-.07-.64-.06-1.28-.15-1.92-.26a20.46,20.46,0,0,1-2.19-.51,24.19,24.19,0,0,1-14.94-12.24c-7.91-15.31,2-35.28,19.83-40.33q.6-.18,1.23-.33c1.33-.32,2.65-.58,4-.77q.66-.11,1.32-.18l1.58-.16A48.19,48.19,0,0,1,1031,76.46a245.52,245.52,0,0,1,32,20.26c14.57,10.69,29.41,20.79,46.57,26.79s34.22,10,51.77,9.18c.6,0,1.19-.05,1.79-.09l2-.14c1.11-.09,2.23-.2,3.34-.33,1.57-.18,3.15-.4,4.73-.67A95,95,0,0,0,1184,129l1.82-.55c.59-.18,1.18-.36,1.77-.52s1.13-.32,1.7-.46a84.43,84.43,0,0,1,8.58-1.67l2.48-.34q2.75-.34,5.49-.6c2.67-.25,5.33-.45,8-.65,4-.3,8.56,1.28,12.36,3.07,4.35,2,4.92,6.7,2.35,10.7a9.35,9.35,0,0,1-5,4.2,5.34,5.34,0,0,1-.88.2,8,8,0,0,1-5.2-1.07c3.3-2,5.15-5,2.72-8.24-.94-1.27-3.86-2.11-5.72-1.82a1.22,1.22,0,0,0-.26.06,1.38,1.38,0,0,0-.27.08s0,0-.06,0l-.09,0c-3.42,1.36-5.19,4.49-4.19,8.56,1.33,5.42,6.54,8.93,12.54,8.29l.09,0c.22,0,.44-.06.65-.1a15.33,15.33,0,0,0,12.53-13.43C1235.88,127.75,1232,122.28,1224,120.49ZM1028.1,102.81a23.9,23.9,0,0,1,2.05,1.69,43.59,43.59,0,0,1,5.28,5.77c.53.68,1,1.38,1.55,2.08l.76,1.06c3.25,4.55,6.22,9.25,10.2,13a26.59,26.59,0,0,0,3,2.45c.34.24.7.47,1,.69a23.22,23.22,0,0,0,3.55,1.82l-1,1.43,0,0c-2.95-1.88-6.34-3.33-8.75-5.76-2.8-2.78-4.66-6.46-7-9.69-2.21-3-4.49-6-7.49-10v0c-.31,2.18-.49,3.47-.67,4.67L1027,102C1027.38,102.28,1027.74,102.54,1028.1,102.81Z" transform="translate(-11.15 -4.62)" fill="#545454"/><path d="M950.3,133.12c-.34-7.7-.3-15.65,1.26-23.15,4.62-22.21-10.85-42.77-33.54-43.7-18.95-.77-34.95,6.83-49.95,17.44-9.91,7-19.37,14.77-29.62,21.27-18.59,11.8-38.55,20.3-61,21.35-8.69.38-17-1.07-24-6.62a15.19,15.19,0,0,1-1.51-1.36,16.22,16.22,0,0,1-2.38-3,17.35,17.35,0,0,1-1.25-2.47,17.11,17.11,0,0,1-.74-2.3c-.06-.26-.12-.52-.17-.78a15.34,15.34,0,0,1,6.33-15.87c4.44-3,9.11-2.9,13.66-.2a12.08,12.08,0,0,1,2.57,2,9.85,9.85,0,0,1,.67.78,7.28,7.28,0,0,1,.64,1,7.51,7.51,0,0,1,.61,6.38,12,12,0,0,1-5.85,6.53c-1.68.74-5.21-.78-6.76-2.39a2,2,0,0,1-.17-.23.94.94,0,0,1-.12-.22,1.9,1.9,0,0,1-.18-.49,3.4,3.4,0,0,1-.07-.34c0-.11,0-.22-.05-.33a8.55,8.55,0,0,1,0-1.67,9.28,9.28,0,0,1,.8-2.84c.49-1,3.26-.73,4.77-1h0a45.33,45.33,0,0,0-.37,6.89c0,.28,3,.9,3.35.44,1.22-1.67,3-4.2,2.54-5.67a.08.08,0,0,0,0,0c0-.15-.11-.31-.17-.46a12.46,12.46,0,0,0-3.76-5.1,6.46,6.46,0,0,0-1.23-.72c-4.26-2-8.64.48-10.64,4.79a10.11,10.11,0,0,0,1.12,10.3,8.63,8.63,0,0,0,1,1.12A9.67,9.67,0,0,0,758.2,114a12.09,12.09,0,0,0,16.07-3.1,14.78,14.78,0,0,0,2.48-12.24c-.09-.38-.2-.76-.32-1.13a14.59,14.59,0,0,0-2.1-4.12A15.16,15.16,0,0,0,772.16,91c-10.1-8.72-25.64-3.32-29.1,10.2-.67,2.61-.85,5.34-1.4,8.91,0,0,0,0,0,0-.12-.23-.24-.46-.35-.69-.2-.4-.38-.8-.55-1.19a0,0,0,0,1,0,0c-2.26-5.21-2.11-9.41-.43-13a0,0,0,0,1,0,0c.17-.36.36-.72.56-1.07s.24-.41.37-.61a18.9,18.9,0,0,1,1.56-2.09s0,0,0,0l.45-.51.47-.49c.16-.17.32-.33.49-.49l1-1a52.86,52.86,0,0,1,6.7-4.89,18.66,18.66,0,0,0-2-.31,15.55,15.55,0,0,0-12.68,3.94c-.36.34-.7.69-1,1.07a17,17,0,0,0-3.57,13.6c1.48,11.46,8.85,18.2,18.7,22.85,2.27,1.13,4.65,2.13,7,3.13a4.38,4.38,0,0,1-1.2.46,1.86,1.86,0,0,1-.47.09,4.51,4.51,0,0,1-2-.17c-8-3.11-16.12-6-23.94-9.58-9.13-4.17-18-8.82-28.48-8l-1.23.12a29,29,0,0,0-3.12.49,16.68,16.68,0,0,0-10.72,6.71q.94-.09,1.89-.21c1.21-.16,2.41-.36,3.6-.57l1.43-.26,1.06-.19c1.07-.19,2.13-.37,3.18-.52.56-.08,1.11-.16,1.66-.21s1.3-.13,1.94-.16c4.75-.23,9.56.8,14.34,1.27l-.11,0c-6.18,1.41-12.31,1.81-18.12,3.18-.83.19-1.66.41-2.48.65-7.1,2.09-9.81,7.65-8.81,14.31A15.5,15.5,0,0,0,700,148.28a13,13,0,0,0,1.87.07c.32,0,.63,0,.95-.08,5.14-.6,9.39-4.37,9.91-9.29.4-3.79-1.45-6.83-4.87-7.73a4,4,0,0,0-1.41-.08l-.36,0c-.21,0-.44.07-.66.11l-.39.1a6.26,6.26,0,0,0-3.39,2.07c-1.86,2.84-.42,5.73,2.58,7.52.17.1.17.5.25.75a11.46,11.46,0,0,1-1.5.44,5.9,5.9,0,0,1-.8.15l-.44.06c-.14,0-.29,0-.44,0-3.68.18-6.77-1.89-8.51-5.81-1.88-4.27-.13-8.24,4.78-10.45a23.33,23.33,0,0,1,3.54-1.18l1.22-.26c.68-.14,1.35-.25,2-.35l.72-.1c.56-.08,1.12-.14,1.67-.18l.88-.07a47,47,0,0,1,5.93,0c6.7.36,13.28,2,19.84,3.59,14.63,3.61,28.91,6.25,44.23,4.38,1.17-.14,2.34-.3,3.51-.5q8.52-1.41,16.65-3.58c1.52-.4,3-.83,4.53-1.28,2.2-.65,4.37-1.34,6.53-2.09,1.89-.65,3.77-1.33,5.62-2a156.66,156.66,0,0,0,36.88-20.25c7-5.13,13.86-10.4,20.93-15.4,8.73-6.16,18-11.27,28.4-13.91.7-.17,1.4-.34,2.1-.49,2.09-.45,4.16-.82,6.22-1.08,10-1.26,19.5.08,27.83,7.22,9,7.76,13.11,17.77,10,29.5-2.52,9.53-9.19,15.32-18.84,17.33l-.94.18c-.53.09-1.06.15-1.58.2l-.82,0a19.17,19.17,0,0,1-19.52-15.41c-1.78-9.88,6.08-18.79,15.16-17.77.48.06,1,.14,1.45.25.29,0,.57.12.85.19a10.48,10.48,0,0,1,7.73,9.06c.62,4-.82,6.93-4.69,8.61l0-.05c2.9-3.56,3.85-7.3,1-11.16a7.35,7.35,0,0,0-2.64-2.27l-.42-.19a4.09,4.09,0,0,0-.49-.18,7.56,7.56,0,0,0-1.57-.33,11.39,11.39,0,0,0-4.37.55c-4.84,1.5-7.27,7.14-5.5,12.27a11.09,11.09,0,0,0,9.68,7.59,10.6,10.6,0,0,0,1.38,0,12.3,12.3,0,0,0,1.58-.17A13.26,13.26,0,0,0,935.32,103c-.37-6.15-3.25-10.86-8.81-13.54a17.51,17.51,0,0,0-1.93-.8,16.31,16.31,0,0,0-3.66-.86c-4.26-.5-8.41.75-12.41,3.3-1.78,1.1-3.55,2.88-5.47,3.1-12.78,1.46-21.68,8.52-28.68,18.77-5.58,8.21-11.42,16.13-23.78,15.3a10,10,0,0,0,5.72,3.83l.55.12.11,0c.45.07.89.13,1.34.16l.45,0,.32,0h.33c.27,0,.54,0,.81,0H861l1.13-.05a5.1,5.1,0,0,1,1.54.12,1.79,1.79,0,0,1,.54.25,17.11,17.11,0,0,0,4.87,2.69,9.27,9.27,0,0,0,1.8.4c3.2.36,6.11-1.24,9.2-5,2-2.39,3.56-5.11,5.66-8.18l0-.06c.58,7.94,2.73,12.57,6.36,13.61l.4.1c.24,0,.49.08.75.1a8.64,8.64,0,0,0,3.6-.59c-1.44-1.81-2.66-3.45-4-5a15.69,15.69,0,0,1-3-5.76c-.09-.31-.17-.62-.25-.93s-.11-.51-.17-.77c-.1-.49-.18-1-.24-1.49a17.18,17.18,0,0,1,0-4.76c0-.1,0-.21.05-.31a12.17,12.17,0,0,1,.31-1.29l.15-.45a7.41,7.41,0,0,1,1.41-2.48,76.41,76.41,0,0,0-.15,8.29c.67,7.6,5.75,13.28,12.75,13.8,2.55.19,5.2-.95,7.81-1.49l-.07,0C897.29,125.29,894,118,899.81,105.94v0c.35,11,5.12,19.08,15.34,23.18,10,4,19,.62,27.85-5.21-1.39,7.69-2.88,14.78,3.93,19.93,2.38,1.77,5.08,3.16,7.76,1,0,0,0,0,0,0C953.06,140.73,950.47,137,950.3,133.12ZM891.08,109.9c-.07-.53-.13-1.1-.21-1.72C881.45,115,880,129.5,866.73,131.85l.27-.13h0c.48-.23,1-.47,1.41-.73l.59-.35.75-.46c.22-.14.43-.29.64-.44s.42-.28.62-.43l.65-.5.55-.44.63-.54.52-.45.6-.58c.16-.15.33-.31.48-.47l.59-.6.46-.49.56-.63.44-.51c.19-.21.37-.42.54-.64l.43-.53.53-.66.41-.54.51-.68.41-.55.5-.69.39-.56c.17-.23.34-.47.5-.71l.33-.47c1.06-1.53,2.12-3.08,3.2-4.62a.71.71,0,0,1,.1-.14c.71-1,1.43-2,2.17-2.94q.39-.52.81-1c.27-.34.55-.68.83-1a36.27,36.27,0,0,1,2.68-2.87l.48-.46q.33-.33.69-.63t.84-.72c.28-.24.57-.46.86-.68s.82-.62,1.25-.91c-1.38,3.81-2.52,7-3.65,10.1C891.24,111.44,891.17,110.71,891.08,109.9Z" transform="translate(-11.15 -4.62)" fill="#545454"/><path d="M745.54,135.88c-10.12-3.23-20.36-6.08-30.57-9.08a7.08,7.08,0,0,0-2.05-.21l0,.06c2.63,3.8,5.74,7.45,7.84,11.61a7.64,7.64,0,0,1,.84,2.88,5.9,5.9,0,0,1,0,.73,5,5,0,0,1-.11.69.64.64,0,0,1,0,.07v0s0,0,0,.07v0s0,0,0,0a4.38,4.38,0,0,1-.74,1.52c-.1.13-.2.27-.32.4a5.37,5.37,0,0,1-.55.5l0,0a5.75,5.75,0,0,1-.63.42l-.12.07a.39.39,0,0,1-.11.06c-.17.1-.35.18-.54.27l-.32.14a7.8,7.8,0,0,1-.93.33c-1.71.5-3.2,1.76-5.53,3.1l.05,0c4.65,2.74,8.46,3.17,12.11.8a8.11,8.11,0,0,0,4.1-6.79,12.6,12.6,0,0,0,0-1.5A42.73,42.73,0,0,0,726,134s0-.05,0-.07l4.43,2.7.07,0,0,0,0,0s0,0,0,0c-.43.86-1.33,2.29-1.18,2.41,8.24,6.56,16.75,12.78,27.93,12.64,2.08,0,4.14-1.93,6.22-2.93-.16-.54-.34-1-.5-1.5,0,0,0,0,0-.06a50.42,50.42,0,0,1-15.71-2.67c-1.13-.37-2.25-.78-3.36-1.21-1.33-.53-2.64-1.09-3.94-1.7h0c-1.3-.6-2.59-1.24-3.86-1.92-1.89-1-3.75-2-5.59-3.15h0l-.07-.09c6.6,2.25,13.05,5.17,19.82,6.52a64.93,64.93,0,0,0,18.15.55c3.57-.31,6.65-2.83,7.87-7.7l0-.06c-2.24.48-3.53.64-4.75,1C762.75,139.48,754.17,138.63,745.54,135.88Z" transform="translate(-11.15 -4.62)" fill="#545454"/><path d="M1201.17,138.73c1.92-4.5,5.38-8.35,8.07-12.35h0a15.68,15.68,0,0,0-2.15.41l-1.4.4-6.14,1.78h0c-3.49,1-7,2-10.44,3l-4.9,1.46c-2.4.74-4.8,1.48-7.2,2.26-9,2.91-17.88,3.78-27,1.05a32.19,32.19,0,0,0-4.37-.64c1.33,3.93,3.6,6.37,6.45,7.3a8.84,8.84,0,0,0,2.06.4,65.4,65.4,0,0,0,17.67-.69l1.27-.28a89.9,89.9,0,0,0,10.67-3.39c1.8-.66,3.6-1.34,5.4-2,.82-.3,1.64-.59,2.46-.86h0c-2.51,1.54-5.07,3-7.67,4.23-1.31.63-2.63,1.24-4,1.8s-2.68,1.07-4,1.55a59.68,59.68,0,0,1-17.36,3.33h0c1.53,2.24,2.82,3.58,4.47,4.19a9.75,9.75,0,0,0,5.21.14,40,40,0,0,0,5-1.23c7.07-2.23,13.25-6.35,19-11.11.31-.25-.51-1.83-.8-2.83l.1-.06,0,0,0,0,4.42-2.41h0c-.53,1.84-.93,3.48-1.2,4.95h0q-.2,1.09-.3,2.07v0a17.08,17.08,0,0,0-.1,1.83v0c0,.4,0,.79.05,1.15l0,.22a8.45,8.45,0,0,0,.14.92c0,.08,0,.16,0,.24s.07.27.11.4a6.59,6.59,0,0,0,.85,1.86,7.36,7.36,0,0,0,.6.78,7,7,0,0,0,.74.7,9.12,9.12,0,0,0,.84.62h0l.48.28a13.44,13.44,0,0,0,2.61,1.14,8.8,8.8,0,0,0,4.23.25,8,8,0,0,0,1.87-.58l.15-.06.08,0,.08,0,.07,0a11.93,11.93,0,0,0,1.73-1.05l0,0,.17-.12.17-.13.08-.06.5-.41C1206.36,145.86,1198,146.22,1201.17,138.73Z" transform="translate(-11.15 -4.62)" fill="#545454"/><path d="M706.24,102.57a15.25,15.25,0,0,0-2.61.51c-.28.08-.57.18-.84.28-2.51.94-4.81,2.82-6.68,6.45,15.47-2,28.1,3.54,40.47,10.11-4.9-9.69-17.71-17.52-27.66-17.48A26.43,26.43,0,0,0,706.24,102.57Z" transform="translate(-11.15 -4.62)" fill="#545454"/><path d="M1185.27,119.78c1-.51,2-1,2.94-1.5l1.71-.85c.92-.45,1.84-.91,2.76-1.34h0l2.13-1h0c.72-.32,1.43-.63,2.15-.93s1.65-.67,2.48-1c.63-.25,1.25-.48,1.88-.7,1.84-.65,3.69-1.24,5.57-1.74.75-.2,1.5-.38,2.25-.55A51.72,51.72,0,0,1,1225,109c-.16-.32-.33-.63-.5-.92s-.35-.58-.53-.84a12.45,12.45,0,0,0-.85-1.11,11.62,11.62,0,0,0-.91-.94s0,0,0,0a11.69,11.69,0,0,0-1-.78s0,0,0,0a10.84,10.84,0,0,0-2.09-1.12h0a12.14,12.14,0,0,0-1.48-.47,0,0,0,0,1,0,0,17.35,17.35,0,0,0-5.36-.31q-1.11.09-2.19.24L1209,103h0a32.21,32.21,0,0,0-4,1l-1,.32c-.64.23-1.27.47-1.89.74l-.93.4c-.6.29-1.19.59-1.78.91l-.88.49a42.05,42.05,0,0,0-13.18,12.94Z" transform="translate(-11.15 -4.62)" fill="#545454"/><path d="M1202.89,87.11a2.26,2.26,0,0,0,0-.45c-.23-1.69-2-3.42-2.91-5.14a56.26,56.26,0,0,0-4.08,4.51c-.55.73-.51,1.86-.76,2.86-1.51,5.77-3,11.54-4.51,17.31-.3,1.16-.48,2.35-.71,3.52l1.48.89,8.67-10.72.37.29c.47.41,1,.91,1.47,1.29l0,0,0,0,.21.16a0,0,0,0,0,0,0l0,0a1.51,1.51,0,0,0,.49.28.18.18,0,0,0,.09,0l0,0c2.94-2,6.07-4.06,8.27-6.79a3.27,3.27,0,0,0,.44-2.27.45.45,0,0,0,0-.11c0-.66-.16-1.38-.26-2.08,0-.2,0-.39-.07-.57,0-.38-.09-.76-.1-1.11h0c-1.21.46-2.62.72-3.82,1.19l-.14,0-.19.1-.34.16-.13.07-.08,0-.08.06-.24.16h0a1.62,1.62,0,0,0-.19.18,2.88,2.88,0,0,0-.27.22,16.75,16.75,0,0,0-2,2.62c-.21.31-.4.63-.59.95-.39.64-.76,1.3-1.14,2s-.75,1.3-1.15,1.93c.19-1,.42-1.94.65-2.91l.45-1.89c0-.19.09-.38.13-.57.08-.35.16-.69.23-1l.06-.27.06-.32.06-.28c.06-.29.11-.58.16-.88l.1-.65a.51.51,0,0,0,0-.13s0-.06,0-.09c0-.29.08-.59.11-.88l-.09.66c.08-.56.15-1.11.19-1.67C1202.86,87.6,1202.88,87.35,1202.89,87.11Z" transform="translate(-11.15 -4.62)" fill="#545454"/><path d="M714.86,89.88a4.75,4.75,0,0,0-.83-.26,20.2,20.2,0,0,0-2-.26,10.68,10.68,0,0,1-1.33-.18h0c-.25,1.5-1.28,3.81-.63,4.5.36.41.72.81,1.1,1.21l.24.26.27.28a1.59,1.59,0,0,1,.13.13c.25.26.51.52.77.77s.38.36.58.54l.56.53.19.17c.26.24.52.46.79.69.81.7,1.63,1.39,2.49,2s1.74,1.27,2.65,1.87a2.37,2.37,0,0,0,.34.19h0a3.14,3.14,0,0,0,.53.19h.06a0,0,0,0,0,0,0,1,1,0,0,0,.43,0s0,0,0,0l.07,0s.06,0,.08,0a.09.09,0,0,0,.07,0l.05,0,.06,0h0s0,0,0,0a.83.83,0,0,0,.24-.31,3,3,0,0,0-.47-2.58l9.52,11.07,1.15-.88c-1.9-7.8-3.61-15.65-5.84-23.35-.53-1.84-2.79-3.19-4.26-4.76a3.6,3.6,0,0,1-.2.39,6.43,6.43,0,0,1-.42.77,24.49,24.49,0,0,0-1.82,3.51,4.67,4.67,0,0,0-.29,1.55v0a34,34,0,0,0,1.27,7.6c.06.21.11.42.15.64.11.42.21.85.29,1.27,0,.21.1.42.14.63-1.79-2.58-3.29-5.41-5.47-7.62A2.16,2.16,0,0,0,714.86,89.88Z" transform="translate(-11.15 -4.62)" fill="#545454"/><path d="M734.47,148.25h0a6,6,0,0,0-.88-1.28,4,4,0,0,0-.29-.3,7.8,7.8,0,0,0-1.39-1.09l-.41-.24-7.71,10.06c3.82,2.76,7.5,2.42,9.89-1.15a6,6,0,0,0,1-5.64C734.58,148.48,734.53,148.37,734.47,148.25Z" transform="translate(-11.15 -4.62)" fill="#545454"/><path d="M1189.07,146.32c-.22.2-.43.4-.62.6l-.27.32-.29.4,0,0,0,0c-.09.14-.17.27-.25.42l-.09.16a3,3,0,0,0-.18.41c0,.06,0,.13-.08.19s-.08.26-.11.4a2,2,0,0,0-.06.23c0,.12,0,.23-.06.35l0,.2a.81.81,0,0,1,0,.16v.1c0,.06,0,.11,0,.17a2.28,2.28,0,0,0,0,.26,2.64,2.64,0,0,0,0,.28.17.17,0,0,0,0,.07,5.11,5.11,0,0,0,.26,1.18c.06.18.12.36.2.54a9.3,9.3,0,0,0,.81,1.46c1.64,2.4,3.81,3.35,6.2,2.89a9.36,9.36,0,0,0,3.61-1.68l-7.51-10.21A9.64,9.64,0,0,0,1189.07,146.32Z" transform="translate(-11.15 -4.62)" fill="#545454"/><path d="M743.39,151.52a8.58,8.58,0,0,0-.66-.7c-.22-.23-.46-.45-.7-.67h0c-.72-.65-1.48-1.26-2.24-1.87-.52-.41-1-.83-1.53-1.25l-1.78,1.43v0c.06.16.12.32.17.48s.1.27.16.41a31.88,31.88,0,0,0,2.09,5.31q.23.4.48.78c.61.91,2.77.77,4.22,1.1,0-.3.1-.62.17-.95s.11-.46.17-.69.1-.42.13-.63a2.64,2.64,0,0,0-.07-2A8.29,8.29,0,0,0,743.39,151.52Z" transform="translate(-11.15 -4.62)" fill="#545454"/><path d="M1178.16,152c-.68,1,.23,3.07.42,4.66l.57-.14c.59-.12,1.24-.21,1.83-.34l.56-.14a2.94,2.94,0,0,0,.72-.3,1.28,1.28,0,0,0,.49-.46c1.33-2.05,1.87-4.59,2.74-6.93h0l-1.8-1.26C1181.8,148.68,1179.55,150,1178.16,152Z" transform="translate(-11.15 -4.62)" fill="#545454"/></svg>