<svg xmlns="http://www.w3.org/2000/svg" viewBox="0 0 450.82 435.6"><title>Asset 3</title><g id="Layer_2" data-name="Layer 2"><g id="Layer_1-2" data-name="Layer 1"><path d="M450.82,222.72a32.31,32.31,0,0,1-1.66,7,23,23,0,0,1-20.94,14.23c-28.12-.1-56.24,0-84.35-.06a4.27,4.27,0,0,0-3.27,1.31c-3.94,3.81-8.27,7.18-12.43,10.74q-9.94,8.49-19.95,16.89L285.51,292c-6.41,5.42-12.77,10.89-19.23,16.26a13.15,13.15,0,0,1-14.71,2c-5.22-2.38-8.09-6.61-8.11-12.41-.07-17.24,0-34.48,0-51.72,0-2.41.21-2.23-2.29-2.23-16.76,0-33.52-.14-50.28,0a22.89,22.89,0,0,1-22.79-22.79q.06-99.18,0-198.34A22.65,22.65,0,0,1,188.17.2,5.64,5.64,0,0,0,189,0h241a7.86,7.86,0,0,0,.8.21c8.82,1.26,14.92,6.05,18.45,14.19a30,30,0,0,1,1.63,6.72Zm-141.4,8.41H427a14.25,14.25,0,0,0,3-.15c5-1.09,8.05-5.12,8.05-10.75q0-98.16,0-196.31a15.44,15.44,0,0,0-.36-3.33c-1-4.68-5-7.77-10.19-7.81-4,0-8,0-12,0H192.32a15.25,15.25,0,0,0-4,.42c-4.64,1.27-7.43,5.13-7.43,10.23q0,78.78,0,157.55,0,19.86,0,39.72a10.26,10.26,0,0,0,1.58,5.82,10.05,10.05,0,0,0,9.05,4.64Q250.45,231.1,309.42,231.13Zm12.73,13.07-.12-.32H258c-1.81,0-1.81,0-1.81,1.78q0,25.13,0,50.26c0,.93-.46,2.16.8,2.64s1.71-.67,2.4-1.25c4.47-3.74,8.9-7.54,13.35-11.31q11.39-9.64,22.79-19.27l19.86-16.81Z" fill="#63cf93"/><path d="M235.69,367.83c-3.5-3.15-6.68-6.19-9.72-9.36-9.71-10.1-18-21.19-23.9-34a86.73,86.73,0,0,1-7.42-26.57,71.46,71.46,0,0,1,.4-16.73c.48-4,.89-8,1.35-12a6.25,6.25,0,0,1,7.25-5.65,6.42,6.42,0,0,1,5.46,7.14c-.68,6.24-1.51,12.46-2,18.71a47.76,47.76,0,0,0,1.23,13.09c2.54,12.95,8.48,24.31,16.32,34.78a136.08,136.08,0,0,0,14,15.8c2.72,2.64,5.56,5.17,8.41,7.68a11.4,11.4,0,0,1-7.27,20c-7.44.21-14.88.07-22.31.28-6.6.18-13.2,0-19.79.23s-13.12,0-19.67.24-13.11,0-19.66.24-13.12,0-19.67.24-13,0-19.43.24-13.2,0-19.79.24-13,0-19.54.24-13.2,0-19.79.24-13,0-19.43.24-13.19,0-19.79.23a43.34,43.34,0,0,1-8.37-.05,10.72,10.72,0,0,1-8.94-7.57,10.77,10.77,0,0,1,2.56-11.54c1.88-2,4-3.69,5.88-5.65a85.35,85.35,0,0,0,16.08-24.15A110.92,110.92,0,0,0,37,302.86,90.91,90.91,0,0,0,38,287c-.15-3.27-.73-6.51-1-9.77-.61-6.69-2-13.28-2.69-19.95A93.94,93.94,0,0,1,42,209a91.12,91.12,0,0,1,22.24-30.8,87.26,87.26,0,0,1,45.59-22c2.64-.42,5.31-.71,8-.89,1.17-.08,1.37-.55,1.37-1.56,0-4.76,0-9.52,0-14.28a6.38,6.38,0,1,1,12.75-.09q0,7.2,0,14.4c0,1.12.17,1.68,1.51,1.81a90.65,90.65,0,0,1,15.92,2.83c3.22.89,5.15,3.21,5.18,6.24a6.33,6.33,0,0,1-8.05,6.28,88,88,0,0,0-20.35-3,75.58,75.58,0,0,0-57.89,24.32,80.26,80.26,0,0,0-20.81,44,76,76,0,0,0-.84,11.94,72.52,72.52,0,0,0,1.32,13.7c1,4.95,1.3,10,1.92,15a90.58,90.58,0,0,1,1,14.81c-.68,16.13-3.75,31.73-10.25,46.58a101.21,101.21,0,0,1-14.7,24.08q-3.11,3.75-6.56,7.16c-.24.24-.71.45-.55.84s.65.2,1,.2c5.28,0,10.56.12,15.83-.08,6.36-.25,12.72,0,19.07-.23,6.76-.26,13.52,0,20.27-.25,6.4-.24,12.8,0,19.19-.23,6.71-.26,13.44,0,20.15-.25,6.43-.24,12.87,0,19.3-.23,6.68-.26,13.36,0,20-.25,6.48-.24,13,0,19.43-.24s13.12,0,19.67-.24,13,0,19.42-.24c6.64-.26,13.28-.08,19.91-.22C233.11,368.08,234.25,367.94,235.69,367.83Z" fill="#63cf93"/><path d="M127.11,435.56c-10.78.15-20.06-3.6-28.07-10.75A83.09,83.09,0,0,1,85,407.75a6.36,6.36,0,0,1,10-7.77c1.69,1.76,2.83,4,4.31,5.9,3.67,4.83,7.55,9.45,12.76,12.7a26,26,0,0,0,21.83,3.26c3.95-1.15,7-3.79,9.79-6.69,4.27-4.4,7.82-9.39,11.5-14.28a6.37,6.37,0,0,1,6.86-2.58,6.21,6.21,0,0,1,4.81,5.51,5.76,5.76,0,0,1-1.16,4.41c-4.58,6.11-9,12.36-14.56,17.65s-12.24,8.94-20.14,9.69C129.67,435.67,128.39,435.56,127.11,435.56Z" fill="#63cf93"/><path d="M30.44,104.37H54.18a6.38,6.38,0,1,1,0,12.75q-23.81,0-47.6,0a6.43,6.43,0,0,1-3.67-11.81,6.18,6.18,0,0,1,3.53-.95Z" fill="#63cf93"/><path d="M102.1,33.48c0-7.52,0-15,0-22.56,0-3.5,1.78-6,4.75-6.84C111.06,2.9,115,6,115,10.67c.06,3.12,0,6.24,0,9.36V55.67a9.19,9.19,0,0,1-.49,3.42,6.35,6.35,0,0,1-7.35,4c-3-.57-5-3.18-5.09-6.69-.06-4.55,0-9.11,0-13.67Z" fill="#63cf93"/><path d="M72.34,81.15a6.68,6.68,0,0,1-5-2.24Q55.05,66.6,42.73,54.33c-1.95-1.95-4-3.83-5.92-5.77a6.42,6.42,0,0,1-1.66-6.86A6,6,0,0,1,40,37.54c2.5-.49,4.5.49,6.25,2.25Q58.38,51.93,70.54,64c2,2,4.11,3.92,6.09,6,2.54,2.61,2.83,5.82.85,8.61A6,6,0,0,1,72.34,81.15Z" fill="#63cf93"/><path d="M303,96.72V57.12C303,55,303,55,305.19,55c3,0,6.08,0,9.12,0,1.1,0,1.45.38,1.45,1.47q0,40.31,0,80.63c0,1.17-.43,1.51-1.55,1.49-3.15,0-6.31,0-9.47,0-1.73,0-1.75,0-1.76-1.73Z" fill="#63cf93"/><path d="M315.74,170.84c0,2.91,0,5.83,0,8.74,0,1-.33,1.42-1.38,1.41-3.36-.05-6.71,0-10.06,0-1,0-1.35-.32-1.35-1.31q0-8.92,0-17.85c0-.91.31-1.29,1.26-1.28,3.39,0,6.79,0,10.18,0,1.08,0,1.36.45,1.35,1.44C315.72,164.93,315.74,167.88,315.74,170.84Z" fill="#63cf93"/></g></g></svg>