<svg xmlns="http://www.w3.org/2000/svg" viewBox="0 0 424.76 479.35"><title>Asset 6</title><g id="Layer_2" data-name="Layer 2"><g id="Layer_1-2" data-name="Layer 1"><path d="M0,410.88V241.44c.06-.47.17-.94.19-1.42a59.08,59.08,0,0,1,1.36-10.93,70.76,70.76,0,0,1,61.09-55.65c5.42-.64,10.86-.36,16.29-.43,1.91,0,1.91,0,1.91-2,0-12,0-24.08,0-36.11A10.63,10.63,0,0,1,96,125.38a10.31,10.31,0,0,1,6.29,10c.05,11.95,0,23.91,0,35.86,0,1.77,0,1.81,1.83,1.81h23c2,0,2,0,2-2q0-17.1,0-34.19a23.27,23.27,0,0,1,.22-3.23,10.72,10.72,0,0,1,11-9c5.56.31,10.11,4.75,10.13,10.09,0,12.52,0,25,0,37.55,0,.28,0,.56-.05.84-.6,0-1.2.06-1.8.06H131.29c-1.9,0-1.91,0-1.91,2v24.34c0,4.91,0,9.83,0,14.75a10.52,10.52,0,1,0,21-.23c0-10.35,0-20.7,0-31.06,0-3.27,0-6.55,0-9.83,9.72,0,19.44,0,29.16-.07a2.64,2.64,0,0,1,2.82,1.77A133.8,133.8,0,0,0,217.84,221c23.83,20.07,51.42,30.7,82.52,32.16a129.06,129.06,0,0,0,24.29-1.22,135.09,135.09,0,0,0,59.55-23.6c1.24-.87,1.36-.85,1.67.6a71.83,71.83,0,0,1,1.53,14.77q0,82.5,0,165a69.17,69.17,0,0,1-.45,8c-2.15,18.2-10.1,33.42-23.9,45.41a68.54,68.54,0,0,1-46.3,17.25H70.64a67,67,0,0,1-9.8-.65,69.52,69.52,0,0,1-44-24.23A68.63,68.63,0,0,1,.68,418C.37,415.66.22,413.26,0,410.88ZM192.84,281.06h-65q-24.9,0-49.8,0a10.44,10.44,0,0,0-9.3,15.2c2.11,4.14,5.69,5.86,10.23,5.86h229a10.53,10.53,0,1,0-.56-21.06Zm.84,88.05h-113c-.64,0-1.28,0-1.92,0a10.49,10.49,0,0,0-9.32,7,10.72,10.72,0,0,0,2.81,11.23c2.48,2.23,5.44,2.85,8.66,2.85H307.54c7.09-.29,11.91-6.3,10.41-13a10.45,10.45,0,0,0-10.52-8.1ZM180.49,346.3h99.83c.64,0,1.28,0,1.92,0a10.52,10.52,0,0,0,9.82-12.36c-1-5.26-5.26-8.68-10.92-8.68H80c-.36,0-.72,0-1.08,0-4.14.35-7.35,2.24-9.1,6.07a10.05,10.05,0,0,0,1.26,11,10.47,10.47,0,0,0,8.82,4ZM102,194.81c0-6.72,0-13.44,0-20.16,0-1.11-.35-1.57-1.52-1.56-6,0-12,0-18,0-1.42,0-1.56.15-1.56,1.61,0,3,0,6.08,0,9.12,0,9.92,0,19.84,0,29.76a10.55,10.55,0,0,0,10.59,10.86,10.66,10.66,0,0,0,10.5-10.94C101.86,207.29,102,201.05,102,194.81Z" fill="#63cf93"/><path d="M318.72,0c2.06.28,4.12.55,6.17.86a115,115,0,0,1,59.74,27.59q33.15,29,39.5,72.84c.24,1.66.41,3.33.59,5,.14,1.26,0,1.47-1.35,1.48H412.81a9.7,9.7,0,1,0-.15,19.39c3.56,0,7.12,0,10.68,0,1.36,0,1.5.21,1.37,1.57A118,118,0,0,1,324.27,234.15c-2.17.32-4.36.5-6.55.78-1,.13-1.45-.25-1.44-1.31,0-3.68.05-7.36,0-11a9.78,9.78,0,0,0-10-9.92,9.61,9.61,0,0,0-9.39,9.48c0,3.52,0,7,0,10.56,0,2.22,0,2.25-2.22,2a119,119,0,0,1-23.54-5,115.76,115.76,0,0,1-43-25q-31.18-28.62-37.46-70.5c-.28-1.86-.38-3.74-.66-5.6-.15-1.08.22-1.45,1.27-1.44,3.64,0,7.28.06,10.92,0a9.7,9.7,0,0,0,8.91-13.23,9.59,9.59,0,0,0-8.69-6.14c-3.64,0-7.28,0-10.92,0-1.51,0-1.59-.11-1.45-1.57a114.87,114.87,0,0,1,27-64.49C235.85,19.39,259.84,5.85,288.68,1c2.4-.41,4.83-.68,7.24-1h1.68q0,7.43,0,14.86a9.79,9.79,0,0,0,1.71,5.65A9.69,9.69,0,0,0,317,15.1c0-5,0-10.07,0-15.1ZM256.07,58.55A9.66,9.66,0,0,0,249.13,75c1.19,1.24,2.36,2.5,3.56,3.73q9.36,9.63,18.75,19.24c7.4,7.58,14.83,15.14,22.21,22.74a70.63,70.63,0,0,1,6,6.65c3.43,4.57,9.45,5.11,13.92,1.52,1.09-.88,2.15-1.78,3.23-2.68,13.31-11.07,26.65-22.1,39.91-33.23a9,9,0,0,0,3-9.77c-1.9-7.14-10.2-9.49-16-4.64q-17.13,14.31-34.28,28.57a1.24,1.24,0,0,1-2-.12q-8.81-9-17.63-18-13.53-13.86-27.05-27.74A9.14,9.14,0,0,0,256.07,58.55Z" fill="#63cf93"/></g></g></svg>