<svg xmlns="http://www.w3.org/2000/svg" viewBox="0 0 363.27 449.99"><title>Asset 11</title><g id="Layer_2" data-name="Layer 2"><g id="Layer_1-2" data-name="Layer 1"><path d="M362.6,373.87a82,82,0,0,0-7.39-25.71,67.75,67.75,0,0,0-23.7-26.67c-10.59-7.08-22.29-11.65-34.46-15.13-3.15-.9-6.4-1.45-9.47-2.65q-10.15-4-20.35-7.91l-18.67-7.27c-.73-.28-1.31-.58-1.48-1.51-1.29-7-2.65-14-4-21a2.2,2.2,0,0,1,.54-2.09,96.39,96.39,0,0,0,6.16-7.51,160,160,0,0,0,18.44-31.79,2.09,2.09,0,0,1,1.41-1.32A16,16,0,0,0,281,207.75c-.16-9-.08-18,0-27a15.74,15.74,0,0,0-3-9.78,187.33,187.33,0,0,0-1.64-26.34v0c1.29.72,2.6,1.43,3.89,2.17.51.28.71.23.89-.34,1-3.14,2-6.28,3-9.42l5.11-16.35c.61-1.94,1.25-3.88,1.87-5.82a3.75,3.75,0,0,1,.3-1.08l-.15-.23a6.84,6.84,0,0,1-1.1-1.05c-1.4-1.3-2.55-2.78-4.06-4.11-2.35-2.19-4.73-4.42-7.2-6.51s-4.86-4-7.41-5.93q-5.11-3.82-10.53-7.25c-4-2.56-8.09-4.88-12.26-7.08-2.55-1.38-5.36-2.55-8.07-3.86q-6.43-2.85-13.15-5.1c-2.56-.9-5.11-1.66-7.67-2.41-4.29-1.2-8.61-2.19-13-3-2.91-.54-5.85-1-8.79-1.33-2.55-.28-4.83-.54-7.25-.72-2.91-.2-5.83-.3-8.76-.36h-7.18a74.33,74.33,0,0,0-8.56.62c-1.74.2-3.5.3-5.26.53-2.56.39-5.26.8-7.89,1.26s-4.83.94-7.23,1.45a.85.85,0,0,0-.69.72c-.36,1.3-.77,2.55-1.18,3.88-1.81,5.9-3.65,11.78-5.46,17.68l-3.22,10.37c-.16.48,0,.59.43.59h2a.61.61,0,0,0-.07.1c-13.79,19.07-21.49,39.85-21.49,69.13a15,15,0,0,0-3,9.2q0,13.68,0,27.36a15.91,15.91,0,0,0,10.67,15.41,2.5,2.5,0,0,1,1.51,1.39,203.9,203.9,0,0,0,17.53,30.94l-.26-.21c-3.38-2.75-6.13-5.14-9.19-7.75s-5.78-4.9-8.63-7.4c-2.22-1.93-4.44-3.91-6.62-5.91-2.79-2.57-5.6-5.15-8.32-7.79-4.54-4.47-9.08-9-13.45-13.63-2.15-2.29-4.33-4.61-6.45-7-2.88-3.31-5.81-6.59-8.59-10-1.94-2.4-3.91-4.76-5.81-7.05-1.16-1.48-2.08-3.13-4.44-3.31a23.48,23.48,0,0,0-6.8,0A72.36,72.36,0,0,0,49,191.17c-2.32,1.13-4.58,2.4-6.83,3.52q-4.76,2.55-9.3,5.39a1.16,1.16,0,0,1-1.64-.1.44.44,0,0,1-.08-.11c-3.17-3.24-6.42-6.41-9.59-9.61-.28-.25-.45-.57-.91,0-1.83,1.83-3.77,3.52-5.5,5.46a71.77,71.77,0,0,0-9.51,13.06,40.91,40.91,0,0,0-5.49,16A24.56,24.56,0,0,0,1.28,235.3a25.16,25.16,0,0,0,9.26,12.33c5.28,3.91,10.57,7.68,16,11.59s10,7.29,15,11c6.62,5,13.28,9.87,19.83,15,.81.67.85.88,0,1.48-3,2-5.92,4-8.84,6.06-3.52,2.54-7,5.07-10.57,7.68s-8.13,6.06-12.08,9.19c-3.17,2.47-6.27,5-9.26,7.71a66.15,66.15,0,0,0-6.45,6.41,27,27,0,0,0-2.71,3.77c4.44.95,8.77,1.91,13.1,2.79a1.25,1.25,0,0,1,.88.63l5.82,8.59a2.69,2.69,0,0,0,.77,1c.67-1.24,1.34-2.43,2-3.53a132.49,132.49,0,0,1,10-16.52,76.9,76.9,0,0,1,11-12.67,37,37,0,0,1,9.55-6.41,7.85,7.85,0,0,1,2.54-.85c.21,0,.42-.21.56,0s0,.42,0,.63,0,.25-.28.36a82.35,82.35,0,0,0-7.65,12A80.88,80.88,0,0,0,54.4,326c-1.39,1.14-2.75,2.34-4.06,3.59a65.86,65.86,0,0,0-15.06,21.75,77.25,77.25,0,0,0-6.48,29c-.34,15.48-.15,31-.06,46.44a22.52,22.52,0,0,0,6.75,16.2A23.33,23.33,0,0,0,52.76,450q143.2,0,286.42,0c.36,0,.72,0,1.08,0a23.63,23.63,0,0,0,23-24.06c0-12.92,0-25.84,0-38.76A101.67,101.67,0,0,0,362.6,373.87Zm-229-161.46a1.46,1.46,0,0,0-1.55-1c-.88,0-1.76,0-2.64,0a3.39,3.39,0,0,1-3.69-3.65c0-2.88,0-5.76,0-8.64V181.23c0-2.41.59-3.3,2.82-4.15a1.09,1.09,0,0,0,.75-1.2v-3.6c0-.38,0-.76,0-1.14.19-29,8-52.44,21.07-68.24l.07-.07c1.8.18,3.81.39,5.63.62,3,.38,5.87.84,8.81,1.33s5.26.86,7.87,1.4c4,.79,8,1.61,12,2.56,7.08,1.68,14.1,3.55,21,5.72,4.12,1.27,8.23,2.55,12.29,4,2.78,1,5.59,2,8.35,3s5.67,2.17,8.48,3.32q6.18,2.49,12.26,5.11c3.66,1.63,7.28,3.29,10.89,5.11l3.08,1.54a0,0,0,0,1,0,0h0a150.2,150.2,0,0,1,4,34.33c0,.52,0,1.05,0,1.58,0,1.12,0,2.24,0,3.36a1.06,1.06,0,0,0,.86,1.22,3.21,3.21,0,0,1,2.52,3.47q0,13.62,0,27.24c0,2.26-1.34,3.52-3.62,3.54-1,0-2.08.07-3.12,0a1.9,1.9,0,0,0-2.22,1.46A135,135,0,0,1,252.2,229a134.27,134.27,0,0,1-18.81,27.43,78,78,0,0,1-19.45,16.19c-10.44,5.92-21.09,6.22-32,1.55-7.57-3.24-13.77-8.35-19.37-14.27a119.93,119.93,0,0,1-16-21.84A259.57,259.57,0,0,1,133.58,212.41Zm-29.77,46.81a41.18,41.18,0,0,1,7.71-4.54,53.31,53.31,0,0,1,9.54-3.53,1.3,1.3,0,0,1,1.27.36l8,6.79c2.5,2.12,5,4.23,7.58,6.27s6,4.86,9.08,7.26l1.38,1.11c-.87,4.64-1.71,9.27-2.53,13.92A2.5,2.5,0,0,1,144,289l-4.17,1.54q-2.85-1.4-5.58-3c-3.13-1.8-6.16-3.74-9.12-5.74q-7.71-5.25-15-11c-2.64-2.12-5.35-4.16-8-6.31a17.39,17.39,0,0,0-1.77-1.44c-.49-.32-.42-.6,0-1A24.74,24.74,0,0,1,103.81,259.22ZM88.48,293.07c-.84-.57-.63-1.31-.56-1.91a72.1,72.1,0,0,1,1.76-9.54A37.89,37.89,0,0,1,93.52,272c.78-1.27.78-1.06,1.59-.46,2.57,1.94,5,4.05,7.53,6l8.84,6.8c1.62,1.23,3.24,2.5,4.9,3.52,3.06,2.15,6.16,4.27,9.3,6.31q.75.5,1.56,1-8.11,3-16.25,6c-2.81,1-5.56,2.27-8.43,3.1L100.88,303l-7-5.67C92.08,295.88,90.32,294.4,88.48,293.07Zm1.68,14.71c-3.7,1.15-7.35,2.44-10.94,3.9a37.1,37.1,0,0,1,5.92-7,.92.92,0,0,1,1.37,0ZM40.41,207.59q4.08-2.43,8.24-4.65c2.18-1.17,4.37-2.29,6.59-3.53A57.4,57.4,0,0,1,65,195.54a3.75,3.75,0,0,1,.67,0c.7,0,1,.63,1.37,1.06,1.66,1.86,3.24,3.8,4.93,5.63,2.78,3,5.46,6,8.21,9,1.3,1.41,2.64,2.78,3.94,4.15,4,4.23,8.14,8.39,12.29,12.47l4.62,4.51c.21.21.56.35.49.71s-.49,0-.77.21a41,41,0,0,0-9.9,3.17l-.14,0a34.28,34.28,0,0,0-10.29,7c-.31.31-.77.49-1,1s-.6.28-.88,0l-5.56-5-7.26-6.55c-2.36-2.19-4.75-4.33-7-6.59s-4.23-3.91-6.27-5.92-4.05-3.83-6.13-5.7-3.77-3.8-5.81-5.53C39.49,208.25,39.53,208.18,40.41,207.59Zm26.17,58.46a37.16,37.16,0,0,0-1.69,6.8c.07.6-.21.74-.78.28l-.14,0c-3.52-2.72-7-5.43-10.81-8.1s-6.76-4.83-10.07-7.33c-4-3-8.14-5.74-12.16-8.7-3.06-2.25-6.3-4.26-9.44-6.41-1.83-1.3-3.76-2.46-5.53-3.91a14.91,14.91,0,0,1-5.24-8,32.08,32.08,0,0,1-.5-3.24,30,30,0,0,1,2.29-9.61A47.63,47.63,0,0,1,16,211.18c1.3-2,2.74-4,4.22-5.88.42-.53.78-.6,1.3,0,3.21,3.17,6.42,6.34,9.66,9.47,1.79,1.73,3.52,3.52,5.35,5.18s2.57,2.57,3.94,3.8c3.07,2.78,6.06,5.67,9.13,8.56,2.29,2.15,4.61,4.33,7,6.45s4.3,3.94,6.45,5.91C66,247.31,69,249.89,72,252.46a1.21,1.21,0,0,1,.46,1.63,1,1,0,0,1-.15.2A58.31,58.31,0,0,0,66.58,266.05ZM196,431.82q-11.82-10.53-23.67-21c-2.16-1.91-4.27-3.86-6.48-5.7a2.13,2.13,0,0,1-.66-2.83q5.13-12.9,10.2-25.84l3-7.74,1.45-3.67q4.4-11.14,8.74-22.28l.68-1.74c.31-.79.67-1.23,1.33-1.39a2.56,2.56,0,0,1,.76-.07c3.05.08,6.09.06,9.14,0h.58a1.62,1.62,0,0,1,1.77,1.2q2.38,5.79,4.78,11.58,3.76,9.12,7.55,18.23l13.11,31.71c.17.4.3.82.41,1.13a2,2,0,0,1-.89,1.61q-4.83,4.31-9.67,8.6l-13.65,12.07q-3.47,3.06-6.9,6.14A1,1,0,0,1,196,431.82ZM184.72,320.15c-1.19-2.47-2.37-4.93-3.55-7.4-.72-1.5-.42-2,1.23-2h27.22c1.65,0,1.87.52,1.09,2.14l-.3.62c-2.59,5.41-5.19,10.82-7.76,16.24a1.72,1.72,0,0,1-1,1,1.91,1.91,0,0,1-.75.12q-3.41,0-6.83,0l-3,0a1.7,1.7,0,0,1-1.76-1.1Q187,325,184.72,320.15Zm166,105.13a12.24,12.24,0,0,1-2.3,7.78,10.59,10.59,0,0,1-8.69,4.37q-67.06,0-134.15,0c-.36,0-.71,0-1.16-.05a1.64,1.64,0,0,1,.76-1.05q7.8-6.93,15.62-13.82c4.38-3.87,8.78-7.69,13.11-11.61a9.8,9.8,0,0,0,2.39-11.33q-9.47-23-19-45.9c-1.91-4.62-3.81-9.24-5.74-13.85-.52-1.26-1-2.51-1.57-3.77a2.81,2.81,0,0,1,.09-2.51q1.26-2.6,2.51-5.2,3-6.19,6-12.42a9.3,9.3,0,0,0-8.43-13.58h-4.37q-6.34,0-12.68,0c-3.8,0-7.59,0-11.39,0a9.25,9.25,0,0,0-9.15,7,9.68,9.68,0,0,0,.76,6.53c2.27,4.67,4.5,9.36,6.76,14.05.61,1.27,1.22,2.55,1.84,3.82l.14.29a2.45,2.45,0,0,1,0,2.16q-2.64,6.67-5.27,13.34-3.1,7.86-6.2,15.71-2,5-3.95,10-2.91,7.36-5.81,14.74c-1.2,3-2.41,6.1-3.58,9.16-1.93,5.06-.86,9,3.24,12.56,6.17,5.39,12.28,10.85,18.42,16.28,3.12,2.75,6.25,5.49,9.36,8.24.32.28.73.49.83,1-.44.31-.93.17-1.39.17H52.56a11,11,0,0,1-11.3-11.07c-.07-15.16-.43-30.33.09-45.47.4-11.7,3.26-22.8,9.62-32.63a1.57,1.57,0,0,0,.5-.08c2.11-.67,4.26-1.27,6.37-2,.5,0,.71,0,.95.38l6.06,11.1c0,.21,0,.53.56.53a27.83,27.83,0,0,1,.46-4.19c.5-3.07,1-6.17,1.59-9.23a124.24,124.24,0,0,1,3.84-15.46l.56-.33a113.33,113.33,0,0,1,29-11.23c.4-.1.8-.2,1.2-.32,4-1.05,7.79-2.44,11.6-3.85l3.45-1.28q11.71-4.3,23.43-8.67l9.65-3.57,5.06-1.87a2,2,0,0,0,1.51-1.72q1.35-7.63,2.78-15.24c.24-1.33.49-2.66.74-4,.33-1.77.36-1.76,1.7-.69,7.8,6.24,16.42,10.75,26.34,12.61A45.75,45.75,0,0,0,220,283.7a76.58,76.58,0,0,0,11-7.44c1-.84,1.08-.83,1.33.49,1.21,6.32,2.43,12.64,3.58,19a2.4,2.4,0,0,0,1.68,2c15.66,6.06,31.29,12.23,47,18.19,3.72,1.41,7.71,2.1,11.54,3.23,10,2.94,19.57,6.76,28.3,12.55,13.1,8.69,21.05,20.82,24.38,36.1a84,84,0,0,1,1.94,18.44C350.68,399.28,350.75,412.28,350.74,425.28Z" fill="#62cd92"/><path d="M311.37,371.46l-7.49,1.06L272.68,377c-3.25.47-6.51.83-9.72,1.43a5.43,5.43,0,0,0-4.33,6.65,5.59,5.59,0,0,0,6.4,4.28l31.2-4.43c5.5-.78,11-1.53,16.49-2.38a5.51,5.51,0,0,0,4.67-5.8A5.74,5.74,0,0,0,311.37,371.46Z" fill="#62cd92"/><path d="M98,35.14c1.92,1.82,3.94,3.53,5.88,5.29l4.49,4.09,5.83,5.11c1.58,1.4,3.14,2.88,4.72,4.31l7.67,6.92c.92.82,1.81,1.66,2.75,2.56,2.1,1.86,4.22,3.73,6.24,5.67.33.31.46.38.71,0,.9-1.84,1.87-3.63,2.84-5.44a3.44,3.44,0,0,1,2.81-1.92l5.11-.56,7.48-.87,8.05-.76c2.55-.21,4.95-.39,7.41-.51s5.46-.21,8.19-.26,6.16,0,9.25.23,5.7.36,8.53.64,5.39.64,8.08,1c3.9.58,7.66,1.32,11.62,2.19a147.8,147.8,0,0,1,14.84,4q6.06,1.91,11.93,4.42A120.15,120.15,0,0,1,254.05,77q5.93,3.33,11.5,7.21c2.22,1.56,4.42,3.11,6.56,4.75s4.09,3.11,6.11,4.7,3.75,3.06,5.64,4.6l4.09,3.34,4.14,3.48,4.7,4a21.42,21.42,0,0,1,1.91,1.66,3.64,3.64,0,0,1,.62,3.65c-.82,3.22-1.59,6.41-2.4,9.63,0,.43-.13.56.4.46l6.42-1.18,4.87-.86,6.49-1.2,8.41-1.49a33,33,0,0,1,3.71-.63c-.14,0,0,.31-.14.46q-2.76,8.34-5.46,16.7-3.69,11.32-7.33,22.58c-.16.46-.29.67-.85.49-2.37-.74-4.77-1.43-7.18-2.15-.38,0-.58,0-.74.36-1.22,4-2.55,7.92-3.78,11.88-.81,2.55-1.63,5.11-2.55,7.79h.15l0,.15h.23c4.55-1.33,9.07-2.65,13.62-4a.78.78,0,0,1,.94.3c.82,1,1.69,2,2.56,2.94l5.23,6c.17.16.33.34.49.5q.66.74,1.32,1.41l.57.64.18-.36q3.09-9.9,6.18-19.84c.08-.3.06-.55-.2-.63a.47.47,0,0,0-.29-.19c-2.94-.82-5.85-1.69-8.78-2.55a.49.49,0,0,1-.23,0c-.11-.12-.13-.27,0-.54.54-1.56,1-3.12,1.64-4.52L333.9,122a37.21,37.21,0,0,0,1.28-4.13l-.15,0a1.54,1.54,0,0,1,.05-.17h.05a1.35,1.35,0,0,1,.51-.25l7.08-1.28,7.86-1.41s.34,0,.39-.15-.18-.25-.28-.36c-1.51-1.66-3-3.29-4.55-4.93S342.72,105.8,341,104a4.21,4.21,0,0,1-1-1.28q-2.76-3.09-5.67-6.05v-.18a6,6,0,0,1-1-1c-1.82-1.74-3.43-3.68-5.11-5.44a2.61,2.61,0,0,1-.67-.94l-5.1-5.37-.23-.2c-.26,0-.39-.26-.54-.41-1.89-2-3.7-4-5.57-5.93l-5.77-6.18c-1.89-2-3.78-4-5.65-6l-5.82-6.21c-1.89-2-3.73-4-5.62-6l-5.85-6.26-3.63-3.88c-2-2.1-4-4.19-5.93-6.31-1.17-1.31-2.37-2.56-3.57-3.83l-5.95-6.37-5.5-5.87L257,14l-3.68-3.93-6.54-7c-.89-.92-1.79-1.84-2.55-2.78a.82.82,0,0,0-.92-.29l-5.11,1.13-16.12,3.6-16.4,3.7L190.4,11.85l-12.57,2.81-16.55,3.73-13.95,3.09-12.59,2.83L118.28,28l-12,2.55-7.07,1.56L95.65,33A20.51,20.51,0,0,0,98,35.14Z" fill="#62cd92"/><path d="M327.54,88.86a.89.89,0,0,0,.56,0,24.29,24.29,0,0,1,3.27-.56,2.91,2.91,0,0,1,.93-.09,2.71,2.71,0,0,1,2.5,2.9,2.41,2.41,0,0,1,0,.38,17.6,17.6,0,0,1-.39,4.22,2.29,2.29,0,0,0,0,.64v.18q2.93,3,5.67,6a45.89,45.89,0,0,0,1.74-7.66,17.62,17.62,0,0,0-.07-6.75,9.14,9.14,0,0,0-8.05-7,16.29,16.29,0,0,0-5.44.26,25.28,25.28,0,0,0-6.06,1.91,1.55,1.55,0,0,1,.23.21Z" fill="#62cd92"/></g></g></svg>