<svg xmlns="http://www.w3.org/2000/svg" viewBox="0 0 454.66 460.18"><title>Asset 9</title><g id="Layer_2" data-name="Layer 2"><g id="Layer_1-2" data-name="Layer 1"><path d="M417.7,0l3.89.64A40.29,40.29,0,0,1,454.23,34.8a51.5,51.5,0,0,1,.43,6.45q0,94.44,0,188.87A40.35,40.35,0,0,1,420,270.2a41.27,41.27,0,0,1-6,.33q-129.24,0-258.47.06a13.46,13.46,0,0,1-13.5-11c-1.15-7.4,4.84-14.69,12.34-14.79h1.44q128.69,0,257.38,0a15.37,15.37,0,0,0,9.51-2.71,13.74,13.74,0,0,0,6.06-11.43q0-95.39,0-190.79a14.37,14.37,0,0,0-12.47-14,26.91,26.91,0,0,0-3.23-.19H121.34c-6.49,0-11.26,2.89-14.07,8.82A17.18,17.18,0,0,0,106,41.34c-.07,1.67,0,3.36,0,5a11.08,11.08,0,0,1-11,11c-2.68,0-5.38.15-7.9-1-4-1.93-6.51-5.11-6.75-9.6-.35-6.45-.29-12.93,2-19.09C88.18,11.72,99.52,2.49,116.41.2a6,6,0,0,0,.81-.2Z" fill="#63cf93"/><path d="M81.57,180c-17.71-4-30.93-13.82-39-30.12a52.94,52.94,0,0,1-4-36.81,55,55,0,1,1,62.69,67.14c1.83.7,3.51,1.16,5.09,1.85a37.08,37.08,0,0,1,18.5,17.23c.69,1.32.68,1.33,2,.53l32.47-19.57a18.61,18.61,0,1,1,19.2,31.88l-44.71,26.93c-1.19.72-2.35,1.54-3.59,2.17a2.19,2.19,0,0,0-1.26,2.31c0,6.6,0,13.2,0,19.8s0,13,0,19.44c0,1.79-.05,1.85-1.78,1.85H55.31c-1.7,0-1.73,0-1.73-1.63,0-22.83-.07-45.67.05-68.51,0-8.16,3.07-15.39,8.21-21.7a36.61,36.61,0,0,1,19-12.38C81.07,180.34,81.38,180.35,81.57,180Z" fill="#63cf93"/><path d="M91.67,339.37h45.59a13.57,13.57,0,0,1,13.19,9.13,14.22,14.22,0,0,1,.56,6.75c-1.37,11.67-2.81,23.32-4.21,35q-1.94,16.13-3.85,32.25c-1,8.72-2,17.46-3.16,26.17a13.11,13.11,0,0,1-13.27,11.47c-23.11,0-46.23-.08-69.34.06A13.9,13.9,0,0,1,43.25,447.4c-.76-7.79-1.84-15.55-2.76-23.32s-1.83-15.55-2.75-23.33c-.83-6.94-1.7-13.87-2.53-20.81q-1.4-11.67-2.74-23.33a20.36,20.36,0,0,1-.3-5A13.56,13.56,0,0,1,46,339.37Z" fill="#63cf93"/><path d="M92.73,331H18.81a18.57,18.57,0,0,1-2.14-37c1.4-.12,2.79-.17,4.19-.17H166.3a18.53,18.53,0,0,1,15.7,7.8c8.07,10.94,1.4,27.09-12,29.18a22.59,22.59,0,0,1-3.58.24Z" fill="#63cf93"/><path d="M327.7,127.68v-68c0-.44,0-.88,0-1.32,0-.88.4-1.24,1.24-1.19h.6q13.92,0,27.84,0c1.79,0,1.79,0,1.79,1.81V196.45c0,1.83,0,1.83-1.88,1.83H329.58c-1.87,0-1.87,0-1.87-1.85Q327.7,162.07,327.7,127.68Z" fill="#63cf93"/><path d="M269.33,149.81q0-23.22,0-46.43c0-1.87,0-1.87,1.84-1.87h28c1.64,0,1.67,0,1.67,1.68v93.34c0,1.73,0,1.75-1.72,1.75H271c-1.64,0-1.67,0-1.67-1.68Q269.33,173.2,269.33,149.81Z" fill="#63cf93"/><path d="M245.15,169.67v26.88c0,1.72,0,1.73-1.74,1.73H215.33c-1.63,0-1.66,0-1.66-1.69V142.84c0-1.72,0-1.73,1.74-1.73h28.08c1.64,0,1.66,0,1.66,1.69Z" fill="#63cf93"/></g></g></svg>